<svg width="42.000000" height="42.000000" viewBox="0 0 42 42" fill="none" xmlns="http://www.w3.org/2000/svg" xmlns:xlink="http://www.w3.org/1999/xlink">
	<desc>
			Created with Pixso.
	</desc>
	<defs>
		<filter id="filter_374_2140_dd" x="0.000000" y="0.000000" width="42.000000" height="42.000000" filterUnits="userSpaceOnUse" color-interpolation-filters="sRGB">
			<feFlood flood-opacity="0" result="BackgroundImageFix"/>
			<feColorMatrix in="SourceAlpha" type="matrix" values="0 0 0 0 0 0 0 0 0 0 0 0 0 0 0 0 0 0 127 0" result="hardAlpha"/>
			<feOffset dx="0" dy="4"/>
			<feGaussianBlur stdDeviation="1.33333"/>
			<feComposite in2="hardAlpha" operator="out" k2="-1" k3="1"/>
			<feColorMatrix type="matrix" values="0 0 0 0 0 0 0 0 0 0 0 0 0 0 0 0 0 0 0.25 0"/>
			<feBlend mode="normal" in2="BackgroundImageFix" result="effect_dropShadow_1"/>
			<feBlend mode="normal" in="SourceGraphic" in2="effect_dropShadow_1" result="shape"/>
		</filter>
		<clipPath id="clip374_2140">
			<rect id="Property 1=Variant5" rx="0.000000" width="33.000000" height="33.000000" transform="translate(4.500000 0.500000)" fill="white" fill-opacity="0"/>
		</clipPath>
	</defs>
	<g filter="url(#filter_374_2140_dd)">
		<g clip-path="url(#clip374_2140)">
			<path id="Vector" d="M52.4 9.32L69.57 9.32C70.28 9.32 70.83 9.94 70.74 10.64L69.86 17.73C69.78 18.32 69.28 18.77 68.68 18.77L65.66 18.77L57.25 18.77L55.55 18.77" stroke="#000000" stroke-opacity="1.000000" stroke-width="1.000000" stroke-linejoin="round"/>
			<path id="Vector" d="M48.46 6.95L51.1 6.95C51.63 6.95 52.1 7.31 52.24 7.83L55.9 21.44C56.04 21.95 56.51 22.31 57.04 22.31L68.54 22.31" stroke="#000000" stroke-opacity="1.000000" stroke-width="1.000000" stroke-linejoin="round" stroke-linecap="round"/>
			<path id="Vector" d="M57.91 27.04C57.26 27.04 56.73 26.51 56.73 25.86C56.73 25.2 57.26 24.67 57.91 24.67C58.56 24.67 59.09 25.2 59.09 25.86C59.09 26.51 58.56 27.04 57.91 27.04Z" stroke="#000000" stroke-opacity="1.000000" stroke-width="1.000000" stroke-linejoin="round"/>
			<path id="Vector" d="M66.77 27.04C66.12 27.04 65.59 26.51 65.59 25.86C65.59 25.2 66.12 24.67 66.77 24.67C67.42 24.67 67.95 25.2 67.95 25.86C67.95 26.51 67.42 27.04 66.77 27.04Z" stroke="#000000" stroke-opacity="1.000000" stroke-width="1.000000" stroke-linejoin="round"/>
			<path id="Vector" d="M12.43 9.32L29.6 9.32C30.31 9.32 30.86 9.94 30.78 10.64L29.89 17.73C29.82 18.32 29.31 18.77 28.72 18.77L25.69 18.77L17.29 18.77L15.58 18.77" stroke="#000000" stroke-opacity="1.000000" stroke-width="1.000000" stroke-linejoin="round"/>
			<path id="Vector" d="M8.5 6.95L11.13 6.95C11.67 6.95 12.14 7.31 12.27 7.83L15.94 21.44C16.08 21.95 16.55 22.31 17.08 22.31L28.58 22.31" stroke="#000000" stroke-opacity="1.000000" stroke-width="1.000000" stroke-linejoin="round" stroke-linecap="round"/>
			<path id="Vector" d="M17.95 27.04C17.29 27.04 16.76 26.51 16.76 25.86C16.76 25.2 17.29 24.67 17.95 24.67C18.6 24.67 19.13 25.2 19.13 25.86C19.13 26.51 18.6 27.04 17.95 27.04Z" stroke="#000000" stroke-opacity="1.000000" stroke-width="1.000000" stroke-linejoin="round"/>
			<path id="Vector" d="M26.81 27.04C26.15 27.04 25.62 26.51 25.62 25.86C25.62 25.2 26.15 24.67 26.81 24.67C27.46 24.67 27.99 25.2 27.99 25.86C27.99 26.51 27.46 27.04 26.81 27.04Z" stroke="#000000" stroke-opacity="1.000000" stroke-width="1.000000" stroke-linejoin="round"/>
			<path id="Vector 22" d="M19.13 10.98L25.25 17.1" stroke="#FF254C" stroke-opacity="1.000000" stroke-width="1.000000"/>
			<path id="Vector 23" d="M25.25 10.98L19.13 17.1" stroke="#FF254C" stroke-opacity="1.000000" stroke-width="1.000000"/>
			<path id="Vector" d="M79.86 16.03L88.67 24.84L104.54 9.15" stroke="#FF254C" stroke-opacity="1.000000" stroke-width="1.000000"/>
		</g>
	</g>
</svg>
