<svg width="42.000000" height="42.000000" viewBox="0 0 42 42" fill="none" xmlns="http://www.w3.org/2000/svg" xmlns:xlink="http://www.w3.org/1999/xlink">
	<desc>
			Created with Pixso.
	</desc>
	<defs>
		<filter id="filter_374_2112_dd" x="0.000000" y="0.000000" width="42.000000" height="42.000000" filterUnits="userSpaceOnUse" color-interpolation-filters="sRGB">
			<feFlood flood-opacity="0" result="BackgroundImageFix"/>
			<feColorMatrix in="SourceAlpha" type="matrix" values="0 0 0 0 0 0 0 0 0 0 0 0 0 0 0 0 0 0 127 0" result="hardAlpha"/>
			<feOffset dx="0" dy="4"/>
			<feGaussianBlur stdDeviation="1.33333"/>
			<feComposite in2="hardAlpha" operator="out" k2="-1" k3="1"/>
			<feColorMatrix type="matrix" values="0 0 0 0 0 0 0 0 0 0 0 0 0 0 0 0 0 0 0.25 0"/>
			<feBlend mode="normal" in2="BackgroundImageFix" result="effect_dropShadow_1"/>
			<feBlend mode="normal" in="SourceGraphic" in2="effect_dropShadow_1" result="shape"/>
		</filter>
		<clipPath id="clip374_2112">
			<rect id="Property 1=Variant3" rx="0.000000" width="33.000000" height="33.000000" transform="translate(4.500000 0.500000)" fill="white" fill-opacity="0"/>
		</clipPath>
	</defs>
	<g filter="url(#filter_374_2112_dd)">
		<g clip-path="url(#clip374_2112)">
			<path id="Vector" d="M52.4 9.32L69.57 9.32C70.28 9.32 70.83 9.94 70.74 10.64L69.86 17.73C69.78 18.32 69.28 18.77 68.68 18.77L65.66 18.77L57.25 18.77L55.55 18.77" stroke="#000000" stroke-opacity="1.000000" stroke-width="1.000000" stroke-linejoin="round"/>
			<path id="Vector" d="M48.46 6.95L51.1 6.95C51.63 6.95 52.1 7.31 52.24 7.83L55.9 21.44C56.04 21.95 56.51 22.31 57.04 22.31L68.54 22.31" stroke="#000000" stroke-opacity="1.000000" stroke-width="1.000000" stroke-linejoin="round" stroke-linecap="round"/>
			<path id="Vector" d="M57.91 27.04C57.26 27.04 56.73 26.51 56.73 25.86C56.73 25.2 57.26 24.67 57.91 24.67C58.56 24.67 59.09 25.2 59.09 25.86C59.09 26.51 58.56 27.04 57.91 27.04Z" stroke="#000000" stroke-opacity="1.000000" stroke-width="1.000000" stroke-linejoin="round"/>
			<path id="Vector" d="M66.77 27.04C66.12 27.04 65.59 26.51 65.59 25.86C65.59 25.2 66.12 24.67 66.77 24.67C67.42 24.67 67.95 25.2 67.95 25.86C67.95 26.51 67.42 27.04 66.77 27.04Z" stroke="#000000" stroke-opacity="1.000000" stroke-width="1.000000" stroke-linejoin="round"/>
			<path id="Vector" d="M-57.6 9.32L-40.43 9.32C-39.72 9.32 -39.17 9.94 -39.26 10.64L-40.14 17.73C-40.22 18.32 -40.72 18.77 -41.32 18.77L-44.34 18.77L-52.75 18.77L-54.45 18.77" stroke="#000000" stroke-opacity="1.000000" stroke-width="1.000000" stroke-linejoin="round"/>
			<path id="Vector" d="M-61.54 6.95L-58.9 6.95C-58.37 6.95 -57.9 7.31 -57.76 7.83L-54.1 21.44C-53.96 21.95 -53.49 22.31 -52.96 22.31L-41.46 22.31" stroke="#000000" stroke-opacity="1.000000" stroke-width="1.000000" stroke-linejoin="round" stroke-linecap="round"/>
			<path id="Vector" d="M-52.09 27.04C-52.74 27.04 -53.27 26.51 -53.27 25.86C-53.27 25.2 -52.74 24.67 -52.09 24.67C-51.44 24.67 -50.91 25.2 -50.91 25.86C-50.91 26.51 -51.44 27.04 -52.09 27.04Z" stroke="#000000" stroke-opacity="1.000000" stroke-width="1.000000" stroke-linejoin="round"/>
			<path id="Vector" d="M-43.23 27.04C-43.88 27.04 -44.41 26.51 -44.41 25.86C-44.41 25.2 -43.88 24.67 -43.23 24.67C-42.58 24.67 -42.05 25.2 -42.05 25.86C-42.05 26.51 -42.58 27.04 -43.23 27.04Z" stroke="#000000" stroke-opacity="1.000000" stroke-width="1.000000" stroke-linejoin="round"/>
			<path id="Vector" d="M-50.91 13.46L-48.41 15.96L-43.9 11.51" stroke="#FF254C" stroke-opacity="1.000000" stroke-width="1.000000"/>
			<path id="Vector" d="M9.86 16.03L18.67 24.84L34.54 9.15" stroke="#FF254C" stroke-opacity="1.000000" stroke-width="1.000000"/>
		</g>
	</g>
</svg>
