<svg width="34.000000" height="34.000000" viewBox="0 0 34 34" fill="none" xmlns="http://www.w3.org/2000/svg" xmlns:xlink="http://www.w3.org/1999/xlink">
	<desc>
			Created with Pixso.
	</desc>
	<defs>
		<clipPath id="clip374_2079">
			<rect id="Property 1=Variant4" rx="0.000000" width="33.000000" height="33.000000" transform="translate(0.500000 0.500000)" fill="white" fill-opacity="0"/>
		</clipPath>
	</defs>
	<g clip-path="url(#clip374_2079)">
		<path id="Vector" d="M17.5 28.84C17.35 28.94 17.18 29 17 29C16.81 29 16.64 28.94 16.49 28.84C14.09 27.19 4 19.87 4 12.96C4 4.05 14.2 2.63 17 8.63C19.79 2.63 30 4.05 30 12.96C30 19.87 19.9 27.19 17.5 28.83L17.5 28.84Z" fill="#FF2048" fill-opacity="1.000000" fill-rule="nonzero"/>
		<path id="-" d="M23.34 15.91C23.38 16.04 23.28 16.13 23.06 16.19L12.72 18.88C12.35 18.98 12.1 18.77 11.96 18.26C11.92 18.11 11.97 17.99 12.1 17.91C12.24 17.82 13.27 17.52 15.2 17C17.15 16.48 19.61 15.89 22.58 15.26C22.95 15.18 23.21 15.4 23.34 15.91Z" fill="#FFFFFF" fill-opacity="1.000000" fill-rule="nonzero"/>
	</g>
</svg>
