<svg width="100.000000" height="35.000000" viewBox="0 0 100 35" fill="none" xmlns="http://www.w3.org/2000/svg" xmlns:xlink="http://www.w3.org/1999/xlink">
	<desc>
			Created with Pixso.
	</desc>
	<defs/>
	<rect id="Предзаказ" rx="9.750000" width="99.500000" height="34.500000" transform="translate(0.250000 0.250000)" fill="#FFEB9D" fill-opacity="1.000000"/>
	<path id="Предзаказ" d="M19.61 22L19.61 13L11.09 13L11.09 22L12.22 22L12.22 13.99L18.48 13.99L18.48 22L19.61 22ZM22.63 19.99L22.63 23.98L21.52 23.98L21.52 15.24L22.63 15.24L22.63 17.24C22.72 17.07 22.81 16.92 22.92 16.76Q23.43 16.02 24.13 15.59Q24.18 15.56 24.24 15.53Q24.5 15.38 24.79 15.28Q25.33 15.08 25.95 15.08Q26.86 15.08 27.58 15.45Q27.65 15.49 27.72 15.53C28.23 15.82 28.63 16.24 28.92 16.76C29.21 17.29 29.36 17.91 29.36 18.61C29.36 19.31 29.21 19.92 28.92 20.46C28.63 20.99 28.23 21.4 27.72 21.71Q27.65 21.75 27.58 21.78Q26.86 22.15 25.95 22.15C25.33 22.15 24.76 22 24.24 21.71C23.72 21.41 23.28 21 22.92 20.47C22.81 20.32 22.72 20.16 22.63 19.99ZM32.26 21.71C32.86 22 33.55 22.15 34.32 22.15Q35.19 22.15 36.05 21.86C36.63 21.66 37.12 21.4 37.54 21.06L37.54 20.2C37.11 20.52 36.63 20.77 36.1 20.95C35.57 21.14 35.03 21.23 34.48 21.23C33.87 21.23 33.34 21.12 32.89 20.9C32.45 20.69 32.1 20.38 31.85 19.98C31.66 19.67 31.54 19.33 31.5 18.94L37.74 18.94Q37.74 17.78 37.29 16.92C36.99 16.34 36.57 15.88 36.03 15.56C35.48 15.24 34.85 15.08 34.12 15.08Q33.01 15.08 32.16 15.53Q31.63 15.8 31.24 16.22Q31.01 16.47 30.83 16.76Q30.8 16.82 30.76 16.88Q30.35 17.63 30.35 18.61Q30.35 19.45 30.68 20.13Q30.76 20.3 30.85 20.46C31.2 20.99 31.67 21.4 32.26 21.71ZM31.52 18.06C31.56 17.75 31.66 17.46 31.8 17.21C32.03 16.82 32.33 16.53 32.73 16.32C33.12 16.1 33.58 16 34.11 16C34.59 16 35.02 16.1 35.39 16.29C35.76 16.5 36.05 16.78 36.27 17.15C36.42 17.41 36.53 17.72 36.59 18.06L31.52 18.06ZM49.7 21.88C50.22 22.06 50.82 22.15 51.49 22.15Q52.56 22.15 53.3 21.89C53.8 21.71 54.17 21.47 54.43 21.16C54.69 20.84 54.82 20.48 54.82 20.08C54.82 19.55 54.58 19.14 54.08 18.86C53.83 18.72 53.53 18.62 53.18 18.55Q53.34 18.51 53.48 18.45C53.86 18.3 54.15 18.1 54.33 17.84C54.52 17.59 54.62 17.3 54.62 16.99Q54.62 16.75 54.55 16.53Q54.46 16.25 54.25 16.01C54 15.72 53.65 15.5 53.19 15.34C52.74 15.17 52.2 15.08 51.57 15.08Q50.55 15.08 49.81 15.37C49.31 15.56 48.92 15.83 48.64 16.16C48.36 16.5 48.2 16.88 48.15 17.3L49.23 17.3C49.3 16.86 49.54 16.54 49.95 16.32C50.36 16.1 50.88 15.98 51.52 15.98Q52.4 15.98 52.94 16.28C53.31 16.48 53.49 16.76 53.49 17.12C53.49 17.42 53.34 17.67 53.04 17.88Q52.59 18.19 51.67 18.19L50.3 18.19L50.3 19.02L51.7 19.02Q52.74 19.02 53.2 19.27Q53.46 19.4 53.58 19.61Q53.68 19.79 53.68 20.03C53.68 20.44 53.49 20.75 53.1 20.95C52.71 21.14 52.18 21.24 51.49 21.24Q50.43 21.24 49.8 20.88C49.38 20.63 49.14 20.28 49.08 19.81L48 19.81C48.03 20.29 48.19 20.71 48.49 21.06C48.78 21.41 49.19 21.68 49.7 21.88ZM62.47 20.14Q62.37 20.31 62.26 20.47C61.9 21 61.46 21.41 60.94 21.71Q60.71 21.84 60.46 21.93Q59.89 22.15 59.24 22.15C58.57 22.15 57.98 22 57.47 21.71C56.96 21.4 56.56 20.99 56.26 20.46C55.97 19.92 55.83 19.31 55.83 18.61C55.83 17.91 55.97 17.29 56.26 16.76C56.56 16.24 56.96 15.82 57.47 15.53C57.98 15.23 58.57 15.08 59.24 15.08Q59.89 15.08 60.46 15.3Q60.71 15.39 60.94 15.53Q61.04 15.59 61.15 15.65Q61.79 16.08 62.27 16.76C62.34 16.86 62.41 16.97 62.47 17.07L62.64 15.24L63.77 15.24L63.46 18.61L63.77 22L62.64 22L62.47 20.14ZM79.27 20.14C79.21 20.25 79.14 20.36 79.06 20.47C78.7 21 78.26 21.41 77.74 21.71C77.23 22 76.66 22.15 76.04 22.15C75.38 22.15 74.79 22 74.28 21.71C73.76 21.4 73.36 20.99 73.06 20.46C72.78 19.92 72.63 19.31 72.63 18.61C72.63 17.91 72.78 17.29 73.06 16.76C73.36 16.24 73.76 15.82 74.28 15.53C74.79 15.23 75.38 15.08 76.04 15.08C76.66 15.08 77.23 15.23 77.74 15.53Q77.85 15.59 77.95 15.65Q78.6 16.08 79.08 16.76C79.15 16.86 79.21 16.97 79.28 17.07L79.45 15.24L80.58 15.24L80.26 18.61L80.58 22L79.45 22L79.27 20.14ZM83.4 21.88C83.92 22.06 84.52 22.15 85.19 22.15C85.9 22.15 86.51 22.06 87 21.89C87.5 21.71 87.88 21.47 88.13 21.16C88.4 20.84 88.53 20.48 88.53 20.08C88.53 19.55 88.28 19.14 87.78 18.86C87.53 18.72 87.24 18.62 86.89 18.55C86.99 18.53 87.09 18.49 87.18 18.45C87.57 18.3 87.85 18.1 88.04 17.84C88.23 17.59 88.32 17.3 88.32 16.99Q88.32 16.75 88.25 16.53Q88.16 16.25 87.95 16.01C87.7 15.72 87.35 15.5 86.9 15.34C86.44 15.17 85.9 15.08 85.28 15.08C84.6 15.08 84.01 15.18 83.51 15.37Q82.77 15.66 82.35 16.16C82.07 16.5 81.9 16.88 81.86 17.3L82.94 17.3C83.01 16.86 83.25 16.54 83.66 16.32C84.06 16.1 84.59 15.98 85.23 15.98Q86.1 15.98 86.64 16.28Q86.98 16.46 87.11 16.73Q87.2 16.91 87.2 17.12C87.2 17.42 87.04 17.67 86.74 17.88C86.44 18.09 85.99 18.19 85.37 18.19L84 18.19L84 19.02L85.41 19.02Q86.44 19.02 86.91 19.27C87.23 19.43 87.39 19.68 87.39 20.03C87.39 20.44 87.19 20.75 86.8 20.95C86.42 21.14 85.88 21.24 85.19 21.24C84.49 21.24 83.92 21.12 83.5 20.88Q83.16 20.68 82.98 20.38Q82.82 20.13 82.78 19.81L81.7 19.81C81.73 20.29 81.9 20.71 82.19 21.06C82.49 21.41 82.89 21.68 83.4 21.88ZM46.1 15.24L39.78 15.24Q39.84 15.83 39.86 16.44C39.88 16.84 39.9 17.23 39.9 17.6Q39.9 20.21 39.1 21.1L38.22 21.1L38.22 23.75L39.19 23.75L39.19 22L46.39 22L46.39 23.75L47.37 23.75L47.37 21.1L46.1 21.1L46.1 15.24ZM45 21.11L45 16.13L40.87 16.13Q40.9 16.48 40.92 16.84C40.93 17.18 40.94 17.5 40.94 17.81C40.94 19.01 40.8 19.95 40.51 20.65C40.44 20.83 40.36 20.98 40.27 21.11L45 21.11ZM65.42 15.24L65.42 22L66.44 22L69.03 18.93L71.06 22L72.38 22L69.75 18.09L72.15 15.24L70.87 15.24L66.53 20.47L66.53 15.24L65.42 15.24ZM27.91 17.26Q28.23 17.84 28.23 18.61Q28.23 19.38 27.91 19.97Q27.74 20.29 27.49 20.54Q27.29 20.74 27.03 20.89C26.66 21.11 26.24 21.22 25.77 21.22C25.29 21.22 24.85 21.11 24.44 20.89C24.04 20.67 23.68 20.36 23.37 19.97C23.06 19.58 22.8 19.12 22.59 18.61C22.8 18.1 23.06 17.65 23.37 17.26C23.68 16.86 24.04 16.56 24.44 16.34C24.85 16.12 25.29 16.01 25.77 16.01Q26.34 16.01 26.81 16.22Q26.92 16.28 27.03 16.34Q27.27 16.48 27.47 16.67Q27.73 16.92 27.91 17.26ZM57.27 19.97Q56.96 19.38 56.96 18.61Q56.96 17.84 57.27 17.26Q57.48 16.86 57.8 16.59Q57.96 16.45 58.14 16.34Q58.28 16.26 58.42 16.2Q58.88 16.01 59.42 16.01C59.9 16.01 60.34 16.12 60.74 16.34C61.14 16.56 61.5 16.86 61.82 17.26C62.14 17.65 62.4 18.1 62.6 18.61C62.4 19.12 62.14 19.58 61.82 19.97C61.5 20.36 61.14 20.67 60.74 20.89C60.34 21.11 59.9 21.22 59.42 21.22Q58.84 21.22 58.36 21Q58.25 20.95 58.14 20.89C57.78 20.67 57.48 20.36 57.27 19.97ZM74.07 19.97Q73.76 19.38 73.76 18.61Q73.76 17.84 74.07 17.26Q74.29 16.86 74.61 16.59Q74.76 16.45 74.95 16.34C75.32 16.12 75.75 16.01 76.22 16.01C76.7 16.01 77.14 16.12 77.54 16.34C77.95 16.56 78.31 16.86 78.62 17.26Q79.1 17.84 79.4 18.61Q79.1 19.38 78.62 19.97C78.31 20.36 77.95 20.67 77.54 20.89C77.14 21.11 76.7 21.22 76.22 21.22C75.75 21.22 75.32 21.11 74.95 20.89C74.58 20.67 74.29 20.36 74.07 19.97Z" fill="#0E0E0E" fill-opacity="1.000000" fill-rule="evenodd"/>
</svg>
