<svg width="35.000000" height="34.999512" viewBox="0 0 35 34.9995" fill="none" xmlns="http://www.w3.org/2000/svg" xmlns:xlink="http://www.w3.org/1999/xlink">
	<desc>
			Created with Pixso.
	</desc>
	<defs/>
	<path id="Vector" d="M17.29 18.82C14.3 18.72 11.92 16.27 11.92 13.26C11.92 10.18 14.4 7.69 17.5 7.69C20.57 7.69 23.07 10.18 23.07 13.26C23.05 16.27 20.69 18.72 17.7 18.82C17.58 18.8 17.43 18.8 17.29 18.82Z" stroke="#FFFFFF" stroke-opacity="1.000000" stroke-width="1.000000" stroke-linejoin="round"/>
	<path id="Vector" d="M17.49 34.49C13.07 34.49 9.06 32.81 6.04 30.04C6.21 28.44 7.23 26.88 9.04 25.65C13.7 22.56 21.32 22.56 25.94 25.65C27.76 26.88 28.78 28.44 28.95 30.04C25.93 32.81 21.91 34.49 17.49 34.49Z" stroke="#FFFFFF" stroke-opacity="1.000000" stroke-width="1.000000" stroke-linejoin="round"/>
	<path id="Vector" d="M34.5 17.5C34.5 8.11 26.88 0.5 17.5 0.5C8.11 0.5 0.5 8.11 0.5 17.5C0.5 26.88 8.11 34.49 17.5 34.49C26.88 34.49 34.5 26.88 34.5 17.5Z" stroke="#FFFFFF" stroke-opacity="1.000000" stroke-width="1.000000" stroke-linejoin="round"/>
</svg>
