<svg width="22.000000" height="12.974609" viewBox="0 0 22 12.9746" fill="none" xmlns="http://www.w3.org/2000/svg" xmlns:xlink="http://www.w3.org/1999/xlink">
	<desc>
			Created with Pixso.
	</desc>
	<defs/>
	<path id="Vector" d="M4.86 0.02C4.97 0.02 5.08 0.02 5.2 0.02C5.58 0.02 5.95 0.02 6.33 0.02C6.59 0.02 6.85 0.02 7.11 0.02C7.66 0.02 8.21 0.02 8.75 0.02C9.46 0.02 10.16 0.02 10.86 0.02C11.4 0.02 11.94 0.02 12.48 0.02C12.74 0.02 13 0.02 13.26 0.02C13.62 0.02 13.98 0.02 14.34 0.02C14.55 0.02 14.76 0.02 14.97 0.02C15.43 0.04 15.43 0.04 15.6 0.21C15.59 0.49 15.57 0.76 15.54 1.04C15.52 1.19 15.51 1.34 15.49 1.49C15.44 1.88 15.36 2.24 15.26 2.61C15.36 2.61 15.46 2.61 15.56 2.62C19.52 2.66 19.52 2.66 20.89 3.94C21.85 4.97 22.01 5.9 21.99 7.28C21.94 8 21.84 8.7 21.71 9.41C21.69 9.53 21.67 9.64 21.65 9.77C21.53 10.34 21.42 10.7 21.09 11.19C20.55 11.22 20.55 11.22 20.06 11.19C20.05 11.32 20.04 11.44 20.03 11.57C19.85 12.19 19.56 12.38 19.03 12.73C18.4 13.05 17.67 12.98 16.97 12.9C16.31 12.56 16.01 12.32 15.6 11.7C15.6 11.53 15.6 11.36 15.6 11.19C14.83 11.19 14.06 11.19 13.3 11.21C13.03 11.21 12.77 11.21 12.51 11.21C12.13 11.21 11.76 11.22 11.38 11.22C11.04 11.23 11.04 11.23 10.7 11.23C10.07 11.31 10.07 11.31 9.71 11.86C9.62 12.04 9.52 12.21 9.43 12.39C8.9 12.9 8.53 12.97 7.81 12.97C7.07 12.95 6.56 12.9 6 12.39C5.48 11.66 5.48 11.66 5.48 11.19C4.92 11.19 4.35 11.19 3.77 11.19C3.7 10.9 3.65 10.62 3.6 10.33C3.77 10.16 3.77 10.16 4.16 10.14C4.4 10.15 4.4 10.15 4.64 10.15C4.79 10.15 4.95 10.15 5.11 10.15C5.24 10.16 5.36 10.16 5.48 10.16C5.49 10.04 5.5 9.91 5.5 9.78C5.72 9.08 6.1 8.88 6.68 8.44C7.28 8.15 7.92 8.19 8.57 8.27C9.33 8.65 9.75 9.05 10.11 9.82C10.11 9.93 10.11 10.04 10.11 10.16C10.85 10.16 11.59 10.16 12.34 10.16C12.38 9.97 12.41 9.79 12.45 9.6C12.82 7.68 13.23 5.78 13.66 3.88C13.69 3.76 13.72 3.64 13.74 3.52C13.82 3.17 13.9 2.83 13.98 2.49C14.04 2.19 14.04 2.19 14.11 1.89C14.23 1.41 14.23 1.41 14.4 1.07C10.89 1.07 7.38 1.07 3.77 1.07C3.71 0.79 3.65 0.5 3.6 0.21C3.91 -0.1 4.43 0.02 4.86 0.02ZM14.92 3.81C14.53 5.22 14.16 6.63 13.84 8.05C13.81 8.18 13.78 8.31 13.75 8.45C13.62 9.04 13.54 9.55 13.54 10.16C14.18 10.22 14.79 10.25 15.43 10.16C15.99 9.56 15.99 9.56 16.12 8.79C17.16 8.37 18.01 8.34 19.1 8.56C19.55 8.79 19.55 8.79 19.75 9.21C19.8 9.35 19.84 9.5 19.89 9.65C20.15 9.93 20.15 9.93 20.4 10.16C20.49 9.73 20.58 9.3 20.66 8.87C20.69 8.75 20.71 8.63 20.74 8.51C21.03 7.03 21.03 7.03 20.72 5.59C20.05 4.65 19.51 4.05 18.35 3.81C18.07 3.8 17.8 3.8 17.53 3.8C17.3 3.8 17.3 3.8 17.07 3.8C16.91 3.8 16.75 3.8 16.59 3.8C16.35 3.8 16.35 3.8 16.1 3.81C15.71 3.81 15.31 3.81 14.92 3.81ZM6.68 9.82C6.45 10.39 6.45 10.39 6.51 11.02C6.83 11.56 6.83 11.56 7.37 11.87C8 11.93 8 11.93 8.57 11.7C8.98 11.25 9.09 11.01 9.06 10.4C8.9 9.95 8.79 9.75 8.4 9.47C7.67 9.2 7.27 9.3 6.68 9.82ZM17.02 9.57C16.58 9.97 16.58 9.97 16.54 10.59C16.59 11.19 16.59 11.19 16.91 11.61C17.44 11.96 17.72 11.98 18.35 11.87C18.78 11.63 18.78 11.63 19.03 11.19C19.16 10.59 19.16 10.59 19.03 9.99C18.67 9.55 18.67 9.55 18.18 9.3C17.5 9.25 17.5 9.25 17.02 9.57Z" fill="#000000" fill-opacity="1.000000" fill-rule="nonzero"/>
	<path id="Vector" d="M0 7.42C2.09 7.42 4.18 7.42 6.34 7.42C6.43 7.76 6.43 7.76 6.51 8.1C6.08 8.54 5.81 8.49 5.22 8.49C5.09 8.49 4.96 8.49 4.83 8.48C4.7 8.48 4.56 8.48 4.43 8.48C4.15 8.48 3.87 8.48 3.59 8.48C3.16 8.48 2.73 8.48 2.3 8.48C2.03 8.48 1.76 8.47 1.48 8.47C1.29 8.47 1.29 8.47 1.09 8.47C0.19 8.46 0.19 8.46 0 8.27C0 7.99 0 7.71 0 7.42Z" fill="#000000" fill-opacity="1.000000" fill-rule="nonzero"/>
	<path id="Vector" d="M1.53 4.65C1.75 4.65 1.97 4.65 2.2 4.66C2.38 4.66 2.38 4.66 2.56 4.66C2.94 4.66 3.32 4.66 3.69 4.66C3.95 4.66 4.2 4.66 4.46 4.66C5.09 4.67 5.71 4.67 6.34 4.67C6.45 4.99 6.45 4.99 6.51 5.36C6.17 5.7 6.17 5.7 5.66 5.74C5.44 5.74 5.23 5.74 5.01 5.73C4.9 5.73 4.78 5.73 4.67 5.73C4.3 5.73 3.94 5.73 3.58 5.72C3.33 5.72 3.08 5.72 2.84 5.72C2.23 5.71 1.63 5.71 1.02 5.7C0.96 5.42 0.9 5.13 0.85 4.84C1.02 4.67 1.02 4.67 1.53 4.65Z" fill="#000000" fill-opacity="1.000000" fill-rule="nonzero"/>
	<path id="Vector" d="M1.88 1.93C3.35 1.93 4.83 1.93 6.34 1.93C6.4 2.15 6.45 2.38 6.51 2.61C6.07 3.06 5.87 3 5.25 3C5.06 3 4.88 3 4.69 3C4.41 3 4.41 3 4.11 3C3.92 3 3.73 3 3.53 3C3.35 3 3.16 3 2.98 3C2.81 3 2.64 3 2.46 3C2.05 2.96 2.05 2.96 1.71 2.61C1.77 2.39 1.82 2.16 1.88 1.93Z" fill="#000000" fill-opacity="1.000000" fill-rule="nonzero"/>
</svg>
