<svg width="84.000000" height="323.000000" viewBox="0 0 84 323" fill="none" xmlns="http://www.w3.org/2000/svg" xmlns:xlink="http://www.w3.org/1999/xlink">
	<desc>
			Created with Pixso.
	</desc>
	<defs>
		<clipPath id="clip374_1622">
			<rect id="Логотип в подвале" rx="0.000000" width="322.000000" height="83.000000" transform="translate(0.500000 323.500000) rotate(-90.000000)" fill="white" fill-opacity="0"/>
		</clipPath>
	</defs>
	<g clip-path="url(#clip374_1622)">
		<path id="Vector" d="M25.67 269.79L25.67 270.44L18.78 269.48C17.62 269.26 16.52 269.2 15.49 269.26C14.47 269.34 13.59 269.64 12.87 270.17C12.15 270.7 11.57 271.51 11.19 272.59C10.79 273.67 10.59 275.12 10.59 276.99L10.59 292.76L43.91 297.79L43.91 290.4C43.91 288.53 43.77 287.02 43.47 285.84C43.19 284.66 42.73 283.69 42.11 282.95C41.49 282.2 40.66 281.63 39.64 281.24C38.62 280.84 37.38 280.55 35.94 280.33L33 279.9L33 279.25L56.48 282.79L56.48 283.44L53.42 282.91C51.96 282.69 50.74 282.63 49.75 282.69C48.77 282.77 47.97 283.08 47.35 283.66C46.73 284.23 46.27 285.07 45.99 286.17C45.71 287.27 45.55 288.77 45.55 290.62L45.55 298.01L79.09 303.04C80.61 303.26 81.47 302.82 81.65 301.76C81.83 300.68 81.93 299.4 81.93 297.91L81.93 292.23L82.59 292.32L82.59 323L81.93 322.9L81.93 320.44C81.93 318.87 81.83 317.67 81.61 316.84C81.39 316.02 80.55 315.5 79.11 315.29L12.33 305.2C10.87 304.99 10.05 305.36 9.87 306.32C9.71 307.29 9.61 308.53 9.61 310.02L9.61 312.06L8.95 311.97L8.95 267.36L25.67 269.79Z" fill="#2C2C2C" fill-opacity="1.000000" fill-rule="nonzero"/>
		<path id="Vector" d="M40.4 237.85C43.47 237.71 46.23 238.46 48.71 240.11C51.2 241.76 53.38 243.86 55.26 246.44C57.16 249.01 58.79 251.88 60.19 255.07C61.57 258.25 62.69 261.34 63.57 264.35C64.73 264.21 66.13 263.96 67.78 263.6C69.42 263.25 70.96 262.66 72.42 261.83C73.88 261.01 75.12 259.89 76.15 258.45C77.17 257.01 77.67 255.21 77.67 252.99C77.67 251.49 77.39 250.11 76.79 248.86C76.21 247.6 75.49 246.46 74.6 245.42C73.72 244.37 72.74 243.43 71.66 242.56C70.58 241.7 69.52 240.95 68.5 240.3L68.72 239.87C70.46 240.58 72.24 241.54 74.02 242.72C75.81 243.9 77.45 245.3 78.95 246.91C80.45 248.52 81.65 250.35 82.61 252.38C83.55 254.42 84.04 256.68 84.04 259.18C84.04 262.11 83.39 264.58 82.13 266.57C80.85 268.57 79.23 270.19 77.27 271.39C75.3 272.6 73.18 273.47 70.94 274.02C68.68 274.55 66.57 274.87 64.61 274.93C61.41 275 57.8 274.59 53.8 273.69C49.79 272.8 46.01 271.35 42.45 269.34C38.88 267.34 35.9 264.72 33.5 261.46C31.09 258.21 29.89 254.28 29.89 249.72C29.89 245.87 30.89 242.94 32.89 240.93C34.82 238.95 37.36 237.93 40.4 237.85ZM39.76 246.32C38.66 246.24 37.58 246.24 36.48 246.32C35.38 246.4 34.4 246.58 33.54 246.85C32.65 247.15 31.95 247.54 31.41 248.09C30.87 248.62 30.59 249.29 30.59 250.08C30.59 252.43 31.83 254.54 34.3 256.41C36.78 258.27 39.74 259.83 43.21 261.07C46.67 262.32 50.21 263.25 53.86 263.86C57.5 264.47 60.49 264.66 62.81 264.45C61.87 262.17 60.57 259.94 58.92 257.8C57.28 255.66 55.44 253.75 53.42 252.06C51.38 250.39 49.17 249.01 46.81 247.99C44.43 246.95 42.08 246.4 39.76 246.32Z" fill="#2C2C2C" fill-opacity="1.000000" fill-rule="nonzero"/>
		<path id="Vector" d="M84 224.34C84 226.78 83.46 228.76 82.35 230.3C81.25 231.83 79.91 233.01 78.31 233.84C76.71 234.66 75.02 235.21 73.28 235.51C71.54 235.8 70 235.98 68.7 236.04C66.43 236.12 63.89 235.92 61.05 235.45C58.2 234.98 55.36 234.25 52.48 233.25C49.59 232.24 46.79 231 44.01 229.55C41.24 228.1 38.8 226.36 36.7 224.4C34.6 222.43 32.89 220.25 31.61 217.85C30.33 215.45 29.73 212.86 29.81 210.09C29.81 208.51 30.25 207.08 31.11 205.8C31.99 204.52 33.23 203.62 34.82 203.13L30.45 199.69L31.55 193.14L70.66 199.9C71.54 200.04 72.56 200.22 73.76 200.39C74.96 200.57 76.09 200.63 77.09 200.55C78.11 200.47 78.99 200.24 79.71 199.8C80.43 199.37 80.81 198.7 80.81 197.76C80.81 196.97 80.49 196.19 79.83 195.4C79.17 194.61 78.33 193.85 77.27 193.1C76.21 192.35 75.02 191.62 73.72 190.9C72.42 190.19 71.14 189.58 69.9 189.07L70.12 188.64C71.64 189.29 73.22 189.99 74.82 190.78C76.43 191.57 77.93 192.49 79.31 193.57C80.69 194.65 81.81 195.93 82.69 197.42C83.58 198.92 84 200.69 84 202.67C84 204.33 83.63 205.66 82.89 206.7C82.17 207.75 81.19 208.53 79.99 209.06C78.79 209.59 77.43 209.89 75.89 209.93C74.36 209.97 72.76 209.83 71.08 209.56L54.8 206.88C56.18 207.24 57.88 207.73 59.89 208.34C61.89 208.95 63.97 209.61 66.11 210.38C68.26 211.13 70.42 211.99 72.56 212.96C74.7 213.92 76.63 214.98 78.29 216.12C79.97 217.26 81.33 218.54 82.39 219.94C83.46 221.27 84 222.77 84 224.34ZM35.38 203.32C33.27 204.33 32.13 205.98 31.99 208.26C31.91 210.4 32.59 212.31 34.02 214C35.44 215.69 37.32 217.16 39.64 218.44C41.96 219.72 44.55 220.82 47.39 221.71C50.24 222.61 53.08 223.34 55.9 223.91C58.75 224.48 61.41 224.89 63.87 225.15C66.35 225.4 68.36 225.48 69.88 225.42C70.98 225.42 72.06 225.32 73.16 225.15C74.26 224.97 75.25 224.69 76.11 224.34C76.99 223.99 77.69 223.47 78.23 222.85C78.77 222.2 79.05 221.41 79.05 220.49C79.05 219.13 78.25 217.83 76.65 216.63C75.04 215.41 72.98 214.23 70.48 213.09C67.98 211.95 65.17 210.89 62.13 209.93C59.07 208.97 56.08 208.08 53.18 207.29C50.28 206.51 47.63 205.84 45.27 205.31C42.91 204.78 41.14 204.4 39.96 204.19L35.38 203.32Z" fill="#2C2C2C" fill-opacity="1.000000" fill-rule="nonzero"/>
		<path id="Vector" d="M29.93 150.55C29.93 148.27 30.63 146.31 32.01 144.66C33.39 143 35 141.98 36.82 141.55C38.72 141.9 40.32 142.63 41.68 143.75C43.03 144.85 43.71 146.23 43.71 147.88C43.71 148.75 43.41 149.55 42.79 150.3C42.16 151.05 41.38 151.71 40.44 152.28C39.5 152.85 38.44 153.31 37.28 153.62C36.12 153.94 34.96 154.13 33.78 154.21C33.78 155.35 34.52 156.53 36.02 157.75C37.52 158.97 39.44 160.15 41.8 161.29C44.17 162.43 46.83 163.55 49.77 164.61C52.72 165.69 55.7 166.7 58.72 167.62C61.75 168.54 64.63 169.35 67.36 170.04C70.08 170.73 72.4 171.24 74.28 171.59L82.59 172.87L82.59 183.39C77.57 182.6 72.72 181.85 68.08 181.13C66.11 180.77 64.09 180.44 62.01 180.1C59.93 179.79 57.9 179.46 55.9 179.14C53.9 178.83 52.02 178.53 50.27 178.28C48.53 178.02 46.99 177.78 45.69 177.59C43.87 177.31 42.25 177.08 40.82 176.9C39.4 176.72 38.32 176.66 37.6 176.74C36.8 176.74 36.04 176.88 35.3 177.17C34.58 177.47 34.2 178.04 34.2 178.89C34.2 180.03 34.56 181.09 35.3 182.05C36.02 183.01 36.9 183.88 37.92 184.63C38.94 185.37 40 186.04 41.08 186.61C42.19 187.18 43.05 187.61 43.71 187.89L43.61 188.54C42.31 187.97 40.86 187.26 39.3 186.4C37.74 185.53 36.26 184.47 34.88 183.17C33.5 181.89 32.33 180.4 31.37 178.73C30.43 177.06 29.95 175.13 29.95 172.99C29.95 170.71 30.63 169.11 31.97 168.21C33.31 167.33 34.9 166.79 36.72 166.66C38.4 166.52 40.04 166.54 41.68 166.72C43.33 166.89 44.77 167.09 45.99 167.31L63.47 169.98C59.55 168.9 55.58 167.72 51.62 166.38C47.65 165.06 44.05 163.59 40.8 161.98C37.56 160.37 34.94 158.62 32.93 156.73C30.93 154.82 29.93 152.78 29.93 150.55Z" fill="#2C2C2C" fill-opacity="1.000000" fill-rule="nonzero"/>
		<path id="Vector" d="M82.01 121.59L82.55 121.59L82.55 141.43L82.01 141.43L82.01 140.68C82.01 139.11 81.91 137.87 81.69 136.99C81.47 136.1 80.57 135.65 78.97 135.65L6.12 135.55C4.82 135.55 3.74 136.03 2.9 136.95C2.06 137.87 1.72 139.17 1.86 140.8L1.86 141.45L1.42 141.45L0 127.49L78.97 127.39C80.57 127.39 81.47 126.94 81.69 126.06C81.91 125.17 82.01 123.93 82.01 122.36L82.01 121.59Z" fill="#2C2C2C" fill-opacity="1.000000" fill-rule="nonzero"/>
		<path id="Vector" d="M57 110.88C59.41 110.88 61.97 110.6 64.71 110.07C67.44 109.54 69.98 108.66 72.3 107.44C74.62 106.22 76.59 104.63 78.15 102.66C79.71 100.7 80.49 98.24 80.49 95.31C80.49 89.51 78.13 85.12 73.38 82.12L73.6 81.68C76.51 83.18 78.97 85.3 80.97 88.01C82.97 90.73 83.97 94.13 83.97 98.2C83.97 102.43 83.13 105.91 81.47 108.66C79.79 111.41 77.67 113.59 75.08 115.21C72.5 116.82 69.62 117.94 66.45 118.59C63.29 119.24 60.25 119.55 57.34 119.55C54.72 119.55 51.84 119.22 48.65 118.53C45.49 117.84 42.51 116.7 39.7 115.09C36.9 113.47 34.58 111.37 32.71 108.76C30.85 106.14 29.93 102.92 29.93 99.04C29.93 95.82 30.61 93.07 31.95 90.79C33.29 88.51 35 86.66 37.04 85.26C39.08 83.87 41.34 82.84 43.81 82.21C46.29 81.57 48.69 81.25 51.02 81.25C52.04 81.25 53.04 81.29 54.02 81.35C55 81.43 56 81.57 57.02 81.78L57.02 110.88L57 110.88ZM55.7 92.01C55.7 91.22 55.44 90.63 54.94 90.24C54.44 89.84 53.84 89.55 53.14 89.37C52.44 89.19 51.72 89.1 50.96 89.06C50.19 89.02 49.55 89 49.05 89C47.45 89 45.59 89.15 43.49 89.49C41.38 89.8 39.38 90.35 37.48 91.1C35.6 91.85 33.98 92.87 32.67 94.15C31.37 95.43 30.71 97.08 30.71 99.08C30.71 101.31 31.65 103.15 33.55 104.67C35.46 106.16 37.7 107.36 40.32 108.27C42.95 109.17 45.67 109.82 48.51 110.25C51.36 110.68 53.76 110.9 55.72 110.9L55.72 92.01L55.7 92.01Z" fill="#2C2C2C" fill-opacity="1.000000" fill-rule="nonzero"/>
		<path id="Vector" d="M52.98 52.43C54.94 48.2 57.12 45.12 59.53 43.15C61.93 41.18 64.99 40.2 68.7 40.2C73.42 40.2 77.17 41.77 79.89 44.92C82.61 48.06 84 52.31 84 57.68C84 59.82 83.53 61.89 82.63 63.85C81.73 65.82 80.51 67.49 78.97 68.85L83.77 71.85L83.67 72.5L66.96 72.5L66.96 71.97C69.08 71.97 71.1 71.66 73.06 71.01C75.02 70.36 76.77 69.46 78.25 68.28C79.75 67.1 80.95 65.62 81.85 63.83C82.75 62.04 83.21 60.04 83.21 57.84C83.21 53.69 82.21 50.74 80.21 48.99C78.21 47.24 75.75 46.33 72.84 46.26C71.32 46.18 69.98 46.43 68.86 47C67.74 47.57 66.75 48.34 65.95 49.3C65.15 50.27 64.43 51.37 63.77 52.63C63.11 53.88 62.49 55.22 61.91 56.66L59.83 61.16C58.14 64.8 56.12 67.57 53.76 69.47C51.4 71.36 48.45 72.33 44.97 72.33C42.87 72.33 40.88 72.01 39.06 71.36C37.24 70.71 35.64 69.75 34.26 68.47C32.87 67.19 31.79 65.56 31.03 63.6C30.27 61.63 29.89 59.33 29.89 56.68C29.89 54.67 30.25 52.8 30.99 51.05C31.71 49.3 32.81 47.81 34.28 46.61L30.13 43.94L30.03 43.29L44.77 43.29L44.77 43.82C42.87 43.82 41.06 44.11 39.36 44.68C37.66 45.25 36.16 46.08 34.88 47.14C33.59 48.22 32.57 49.52 31.81 51.05C31.05 52.59 30.67 54.36 30.67 56.36C30.67 59.72 31.61 62.32 33.51 64.13C35.42 65.96 37.74 66.86 40.5 66.86C43.27 66.86 45.35 65.99 46.73 64.28C48.11 62.57 49.43 60.35 50.66 57.64L52.98 52.43Z" fill="#2C2C2C" fill-opacity="1.000000" fill-rule="nonzero"/>
		<path id="Vector" d="M52.98 12.2C54.94 7.98 57.12 4.89 59.53 2.92C61.93 0.96 64.99 -0.02 68.7 -0.02C73.42 -0.02 77.17 1.55 79.89 4.69C82.61 7.84 84 12.09 84 17.45C84 19.6 83.53 21.66 82.63 23.63C81.73 25.59 80.51 27.26 78.97 28.62L83.77 31.63L83.67 32.28L66.96 32.28L66.96 31.75C69.08 31.75 71.1 31.43 73.06 30.78C75.02 30.13 76.77 29.23 78.25 28.05C79.75 26.87 80.95 25.4 81.85 23.61C82.75 21.82 83.21 19.81 83.21 17.61C83.21 13.46 82.21 10.51 80.21 8.76C78.21 7.01 75.75 6.11 72.84 6.03C71.32 5.95 69.98 6.21 68.86 6.78C67.74 7.35 66.75 8.11 65.95 9.08C65.15 10.04 64.43 11.14 63.77 12.4C63.11 13.66 62.49 15 61.91 16.43L59.83 20.93C58.14 24.57 56.12 27.34 53.76 29.25C51.4 31.14 48.45 32.1 44.97 32.1C42.87 32.1 40.88 31.79 39.06 31.14C37.24 30.49 35.64 29.52 34.26 28.25C32.87 26.97 31.79 25.34 31.03 23.37C30.27 21.41 29.89 19.1 29.89 16.45C29.89 14.45 30.25 12.58 30.99 10.83C31.71 9.08 32.81 7.58 34.28 6.38L30.13 3.71L30.03 3.06L44.77 3.06L44.77 3.59C42.87 3.59 41.06 3.89 39.36 4.46C37.66 5.03 36.16 5.85 34.88 6.92C33.59 8 32.57 9.29 31.81 10.83C31.05 12.36 30.67 14.13 30.67 16.14C30.67 19.5 31.61 22.09 33.51 23.9C35.42 25.73 37.74 26.63 40.5 26.63C43.27 26.63 45.35 25.77 46.73 24.06C48.11 22.35 49.43 20.13 50.66 17.41L52.98 12.2Z" fill="#2C2C2C" fill-opacity="1.000000" fill-rule="nonzero"/>
		<path id="Kpop store" d="M16 240.31L16 241.37L4.36 241.37L4.36 240.31L10.62 240.31L10.62 240.21L4.36 234.53L4.36 233.13L9.74 238.1L16 233.15L16 234.44L10.48 238.76L12.22 240.31L16 240.31ZM7.27 188.4L7.27 186.55L8.15 186.55L8.15 188.4L13.72 188.4C14.81 188.4 15.14 187.76 15.14 187.07C15.14 186.81 15.1 186.63 15.06 186.48L15.97 186.27C16.05 186.46 16.12 186.75 16.12 187.17C16.12 188.29 15.38 189.41 13.96 189.41L8.15 189.41L8.15 190.71L7.27 190.71L7.27 189.41L5.18 189.41L5.18 188.4L7.27 188.4ZM16 173.88L16 174.89L7.27 174.89L7.27 173.91L8.61 173.91L8.61 173.83C7.73 173.48 7.14 172.54 7.14 171.45C7.14 171.28 7.15 171.05 7.16 170.91L8.18 170.91C8.17 171 8.12 171.25 8.12 171.52C8.12 172.88 9.06 173.88 10.36 173.88L16 173.88ZM19.27 230.33L19.27 231.34L7.27 231.34L7.27 230.36L8.93 230.36L8.93 230.24C8.15 229.88 7.15 229.17 7.15 227.56C7.15 225.41 8.96 223.96 11.66 223.96C14.36 223.96 16.18 225.42 16.18 227.55C16.18 229.13 15.18 229.88 14.37 230.24L14.37 230.33L19.27 230.33ZM11.67 214.51C14.33 214.51 16.18 216.09 16.18 218.35C16.18 220.61 14.33 222.19 11.67 222.19C9 222.19 7.15 220.61 7.15 218.35C7.15 216.09 9 214.51 11.67 214.51ZM19.27 211.27L19.27 212.29L7.27 212.29L7.27 211.31L8.93 211.31L8.93 211.18C8.15 210.83 7.15 210.12 7.15 208.51C7.15 206.36 8.96 204.91 11.66 204.91C14.36 204.91 16.18 206.37 16.18 208.5C16.18 210.08 15.18 210.83 14.37 211.18L14.37 211.27L19.27 211.27ZM7.15 195.28C7.15 193.69 7.92 192.75 9.18 192.33L9.44 193.25C8.66 193.53 8.04 194.1 8.04 195.28C8.04 196.46 8.66 197.3 9.55 197.3C10.3 197.3 10.74 196.8 11.01 195.71L11.33 194.4C11.69 192.94 12.47 192.2 13.64 192.2C15.12 192.2 16.18 193.52 16.18 195.44C16.18 197.15 15.39 198.3 13.93 198.61L13.69 197.64C14.73 197.4 15.27 196.65 15.27 195.46C15.27 194.12 14.59 193.25 13.68 193.25C12.98 193.25 12.49 193.71 12.26 194.67L11.92 196.09C11.56 197.61 10.76 198.32 9.59 198.32C8.16 198.32 7.15 197.04 7.15 195.28ZM11.67 177.11C14.33 177.11 16.18 178.69 16.18 180.95C16.18 183.21 14.33 184.79 11.67 184.79C9 184.79 7.15 183.21 7.15 180.95C7.15 178.69 9 177.11 11.67 177.11ZM14.13 162.6C15.23 163 16.18 164.18 16.18 165.93C16.18 168.37 14.33 169.91 11.68 169.91C9.04 169.91 7.15 168.34 7.15 166.08C7.15 164.19 8.52 162.39 11.43 162.39L11.93 162.39L11.93 168.89C13.95 168.84 15.25 167.71 15.25 165.93C15.25 164.69 14.6 163.9 13.82 163.57L14.13 162.6ZM8.07 227.67C8.07 229.38 9.55 230.34 11.64 230.34C13.75 230.34 15.25 229.36 15.25 227.67C15.25 225.94 13.67 224.97 11.64 224.97C9.62 224.97 8.07 225.92 8.07 227.67ZM11.67 221.17C13.62 221.17 15.25 220.16 15.25 218.35C15.25 216.54 13.62 215.53 11.67 215.53C9.72 215.53 8.07 216.54 8.07 218.35C8.07 220.16 9.72 221.17 11.67 221.17ZM8.07 208.62C8.07 210.33 9.55 211.29 11.64 211.29C13.75 211.29 15.25 210.31 15.25 208.62C15.25 206.89 13.67 205.92 11.64 205.92C9.62 205.92 8.07 206.87 8.07 208.62ZM11.67 183.78C13.62 183.78 15.25 182.76 15.25 180.95C15.25 179.14 13.62 178.13 11.67 178.13C9.72 178.13 8.07 179.14 8.07 180.95C8.07 182.76 9.72 183.78 11.67 183.78ZM8.07 166.08C8.07 167.68 9.42 168.78 11.04 168.88L11.04 163.42C9.36 163.42 8.07 164.52 8.07 166.08Z" fill="#FF254C" fill-opacity="1.000000" fill-rule="evenodd"/>
	</g>
	<rect id="Логотип в подвале" rx="0.000000" width="322.000000" height="83.000000" transform="translate(0.500000 323.500000) rotate(-90.000000)" stroke="#FFFFFF" stroke-opacity="0" stroke-width="1.000000"/>
</svg>
