<svg width="100.000000" height="26.000000" viewBox="0 0 100 26" fill="none" xmlns="http://www.w3.org/2000/svg" xmlns:xlink="http://www.w3.org/1999/xlink">
	<desc>
			Created with Pixso.
	</desc>
	<defs>
		<clipPath id="clip374_1983">
			<rect rx="0.000000" width="99.000000" height="25.000000" transform="translate(0.500000 0.500000)" fill="white" fill-opacity="0"/>
		</clipPath>
	</defs>
	<rect rx="0.000000" width="99.000000" height="25.000000" transform="translate(0.500000 0.500000)" fill="#FFFFFF" fill-opacity="0"/>
	<g clip-path="url(#clip374_1983)">
		<path d="M16.47 7.94L16.26 7.94L16.56 5.81C16.63 5.45 16.65 5.11 16.63 4.79C16.61 4.48 16.51 4.2 16.35 3.98C16.19 3.76 15.94 3.58 15.6 3.46C15.27 3.34 14.82 3.27 14.24 3.27L9.36 3.27L7.8 13.59L10.09 13.59C10.66 13.59 11.13 13.54 11.5 13.45C11.86 13.36 12.16 13.22 12.39 13.03C12.62 12.84 12.8 12.58 12.92 12.27C13.04 11.95 13.14 11.57 13.2 11.12L13.34 10.21L13.54 10.21L12.44 17.48L12.24 17.48L12.41 16.53C12.47 16.08 12.49 15.7 12.47 15.4C12.45 15.09 12.35 14.85 12.17 14.65C12 14.46 11.74 14.32 11.4 14.23C11.05 14.14 10.59 14.1 10.02 14.1L7.73 14.1L6.17 24.48C6.11 24.95 6.24 25.21 6.57 25.27C6.9 25.33 7.3 25.36 7.76 25.36L9.52 25.36L9.49 25.56L0 25.56L0.03 25.36L0.79 25.36C1.27 25.36 1.64 25.33 1.9 25.26C2.16 25.19 2.31 24.93 2.38 24.48L5.5 3.81C5.57 3.36 5.45 3.11 5.16 3.05C4.86 3 4.47 2.97 4.01 2.97L3.38 2.97L3.41 2.77L17.22 2.77L16.47 7.94Z" fill="#FFFFFF" fill-opacity="1.000000" fill-rule="nonzero"/>
		<path d="M26.36 12.5C26.4 13.45 26.17 14.31 25.66 15.07C25.15 15.84 24.49 16.52 23.7 17.1C22.9 17.69 22.01 18.19 21.02 18.63C20.04 19.05 19.08 19.4 18.15 19.67C18.19 20.03 18.27 20.47 18.38 20.98C18.49 21.48 18.67 21.96 18.93 22.41C19.19 22.87 19.53 23.25 19.98 23.57C20.42 23.88 20.98 24.04 21.67 24.04C22.13 24.04 22.56 23.95 22.95 23.76C23.34 23.58 23.69 23.36 24.01 23.09C24.34 22.82 24.63 22.51 24.9 22.18C25.16 21.84 25.39 21.51 25.6 21.2L25.73 21.27C25.51 21.81 25.21 22.36 24.85 22.91C24.48 23.46 24.05 23.97 23.55 24.43C23.05 24.9 22.49 25.27 21.86 25.57C21.23 25.86 20.53 26.01 19.75 26.01C18.85 26.01 18.08 25.81 17.46 25.42C16.84 25.02 16.34 24.52 15.97 23.91C15.59 23.31 15.33 22.65 15.16 21.95C14.99 21.25 14.9 20.6 14.88 20C14.85 19 14.98 17.89 15.26 16.65C15.53 15.41 15.98 14.24 16.61 13.13C17.23 12.03 18.04 11.11 19.05 10.36C20.05 9.62 21.27 9.25 22.68 9.25C23.87 9.25 24.78 9.56 25.4 10.18C26.02 10.77 26.33 11.56 26.36 12.5ZM23.73 12.3C23.76 11.96 23.76 11.63 23.73 11.29C23.71 10.95 23.65 10.64 23.57 10.38C23.48 10.1 23.36 9.89 23.19 9.72C23.02 9.55 22.81 9.47 22.57 9.47C21.84 9.47 21.19 9.85 20.61 10.61C20.03 11.38 19.55 12.3 19.17 13.37C18.78 14.44 18.49 15.54 18.3 16.67C18.12 17.8 18.05 18.72 18.12 19.44C18.83 19.15 19.51 18.74 20.18 18.24C20.84 17.73 21.43 17.16 21.96 16.53C22.47 15.9 22.9 15.22 23.22 14.49C23.54 13.75 23.71 13.02 23.73 12.3Z" fill="#FFFFFF" fill-opacity="1.000000" fill-rule="nonzero"/>
		<path d="M30.54 26C29.78 26 29.17 25.83 28.69 25.49C28.22 25.15 27.85 24.73 27.6 24.23C27.34 23.74 27.17 23.22 27.08 22.68C26.99 22.14 26.94 21.66 26.92 21.26C26.89 20.56 26.95 19.77 27.1 18.89C27.25 18.01 27.47 17.13 27.78 16.24C28.09 15.35 28.48 14.48 28.93 13.62C29.38 12.76 29.91 12.01 30.52 11.36C31.13 10.71 31.8 10.18 32.55 9.78C33.29 9.39 34.09 9.2 34.95 9.22C35.44 9.22 35.88 9.36 36.28 9.63C36.67 9.9 36.95 10.28 37.11 10.77L38.17 9.42L40.2 9.76L38.1 21.87C38.06 22.14 38.01 22.46 37.95 22.83C37.9 23.2 37.88 23.55 37.9 23.86C37.93 24.17 38 24.45 38.14 24.67C38.27 24.89 38.48 25.01 38.77 25.01C39.01 25.01 39.25 24.91 39.5 24.71C39.74 24.5 39.98 24.24 40.21 23.91C40.44 23.58 40.67 23.22 40.89 22.82C41.11 22.41 41.3 22.02 41.46 21.63L41.59 21.7C41.39 22.17 41.17 22.66 40.93 23.16C40.69 23.65 40.4 24.12 40.06 24.54C39.73 24.97 39.33 25.32 38.87 25.59C38.41 25.87 37.86 26 37.25 26C36.74 26 36.32 25.88 36 25.65C35.68 25.43 35.43 25.13 35.27 24.76C35.1 24.38 35.01 23.96 35 23.49C34.99 23.01 35.03 22.52 35.12 22L35.94 16.96C35.83 17.39 35.68 17.91 35.49 18.53C35.3 19.15 35.1 19.8 34.86 20.46C34.63 21.12 34.36 21.79 34.06 22.46C33.76 23.12 33.44 23.71 33.08 24.23C32.73 24.75 32.33 25.17 31.9 25.5C31.49 25.83 31.03 26 30.54 26ZM37.05 10.95C36.74 10.3 36.22 9.94 35.52 9.9C34.85 9.87 34.26 10.09 33.74 10.53C33.22 10.97 32.76 11.55 32.37 12.27C31.97 12.99 31.63 13.79 31.35 14.67C31.07 15.55 30.85 16.43 30.67 17.3C30.5 18.18 30.37 19 30.29 19.77C30.21 20.54 30.19 21.15 30.2 21.63C30.2 21.97 30.23 22.3 30.29 22.64C30.34 22.98 30.43 23.29 30.54 23.55C30.65 23.83 30.81 24.04 31 24.21C31.2 24.38 31.45 24.46 31.73 24.46C32.15 24.46 32.55 24.22 32.92 23.72C33.3 23.22 33.67 22.59 34.02 21.81C34.37 21.04 34.7 20.17 35 19.23C35.3 18.28 35.57 17.36 35.82 16.46C36.06 15.56 36.27 14.74 36.43 14.01C36.6 13.28 36.71 12.73 36.78 12.37L37.05 10.95Z" fill="#FFFFFF" fill-opacity="1.000000" fill-rule="nonzero"/>
		<path d="M53.38 9.26C54.09 9.26 54.7 9.48 55.21 9.91C55.72 10.33 56.04 10.83 56.17 11.39C56.06 11.98 55.84 12.48 55.49 12.9C55.15 13.31 54.72 13.52 54.21 13.52C53.94 13.52 53.69 13.43 53.46 13.24C53.23 13.05 53.02 12.81 52.85 12.51C52.67 12.22 52.53 11.89 52.43 11.54C52.34 11.18 52.28 10.82 52.25 10.45C51.9 10.45 51.53 10.68 51.16 11.14C50.78 11.61 50.41 12.2 50.06 12.94C49.71 13.67 49.36 14.49 49.03 15.4C48.7 16.31 48.39 17.24 48.1 18.17C47.81 19.11 47.56 20 47.35 20.84C47.14 21.69 46.98 22.41 46.87 22.99L46.47 25.56L43.22 25.56C43.46 24.01 43.69 22.51 43.92 21.07C44.03 20.46 44.13 19.83 44.23 19.19C44.33 18.54 44.44 17.92 44.53 17.3C44.63 16.68 44.72 16.1 44.8 15.56C44.88 15.02 44.95 14.54 45.01 14.14C45.1 13.57 45.17 13.07 45.23 12.63C45.28 12.19 45.3 11.86 45.28 11.63C45.28 11.39 45.23 11.15 45.14 10.92C45.05 10.7 44.87 10.58 44.61 10.58C44.26 10.58 43.93 10.69 43.63 10.92C43.33 11.14 43.07 11.42 42.83 11.73C42.6 12.05 42.4 12.38 42.22 12.71C42.04 13.05 41.91 13.32 41.82 13.52L41.62 13.49C41.8 13.09 42.02 12.64 42.29 12.16C42.55 11.68 42.88 11.22 43.29 10.79C43.68 10.36 44.14 10 44.66 9.71C45.18 9.42 45.77 9.27 46.44 9.27C47.14 9.27 47.64 9.48 47.92 9.89C48.19 10.31 48.36 10.8 48.4 11.36C48.44 11.88 48.43 12.39 48.38 12.9C48.32 13.41 48.26 13.85 48.2 14.23L47.37 19.64C47.7 18.43 48.07 17.2 48.48 15.97C48.89 14.75 49.35 13.63 49.85 12.63C50.35 11.62 50.89 10.81 51.47 10.19C52.06 9.57 52.7 9.26 53.38 9.26Z" fill="#FFFFFF" fill-opacity="1.000000" fill-rule="nonzero"/>
		<path d="M62.35 25.38L62.35 25.55L56.21 25.55L56.21 25.38L56.44 25.38C56.92 25.38 57.31 25.35 57.58 25.28C57.86 25.21 58 24.93 58 24.44L58.03 1.89C58.03 1.49 57.88 1.15 57.59 0.89C57.31 0.63 56.91 0.53 56.4 0.57L56.2 0.57L56.2 0.43L60.52 0L60.55 24.44C60.55 24.93 60.69 25.21 60.97 25.28C61.24 25.35 61.62 25.38 62.11 25.38L62.35 25.38Z" fill="#FFFFFF" fill-opacity="1.000000" fill-rule="nonzero"/>
		<path d="M65.67 17.64C65.67 18.38 65.75 19.18 65.91 20.03C66.08 20.87 66.35 21.66 66.73 22.38C67.11 23.09 67.6 23.7 68.21 24.18C68.82 24.67 69.58 24.91 70.49 24.91C72.28 24.91 73.64 24.18 74.57 22.71L74.71 22.78C74.24 23.68 73.58 24.44 72.75 25.06C71.9 25.68 70.85 25.99 69.59 25.99C68.28 25.99 67.21 25.73 66.35 25.21C65.5 24.69 64.83 24.04 64.33 23.24C63.83 22.44 63.48 21.54 63.28 20.57C63.08 19.59 62.98 18.64 62.98 17.75C62.98 16.93 63.08 16.04 63.3 15.06C63.51 14.08 63.86 13.15 64.36 12.29C64.86 11.42 65.51 10.7 66.32 10.12C67.13 9.55 68.13 9.26 69.33 9.26C70.33 9.26 71.18 9.47 71.89 9.89C72.59 10.3 73.16 10.83 73.6 11.46C74.03 12.09 74.35 12.79 74.54 13.56C74.74 14.32 74.84 15.07 74.84 15.79C74.84 16.1 74.83 16.41 74.81 16.72C74.78 17.02 74.74 17.33 74.67 17.65L65.67 17.65L65.67 17.64ZM71.51 17.24C71.75 17.24 71.94 17.16 72.06 17C72.18 16.85 72.27 16.66 72.32 16.44C72.38 16.23 72.41 16 72.42 15.77C72.43 15.53 72.44 15.33 72.44 15.18C72.44 14.68 72.39 14.11 72.29 13.46C72.19 12.81 72.02 12.19 71.79 11.6C71.56 11.01 71.24 10.51 70.85 10.11C70.45 9.71 69.94 9.5 69.32 9.5C68.63 9.5 68.06 9.79 67.59 10.38C67.13 10.97 66.75 11.67 66.48 12.48C66.2 13.29 65.99 14.13 65.86 15.01C65.73 15.89 65.66 16.64 65.66 17.24L71.51 17.24L71.51 17.24Z" fill="#FFFFFF" fill-opacity="1.000000" fill-rule="nonzero"/>
		<path d="M83.76 16.39C85.07 17 86.03 17.68 86.63 18.42C87.24 19.16 87.55 20.11 87.55 21.26C87.55 22.72 87.06 23.88 86.09 24.72C85.11 25.57 83.8 26 82.14 26C81.47 26 80.83 25.85 80.22 25.57C79.62 25.29 79.1 24.92 78.68 24.44L77.75 25.93L77.55 25.9L77.55 20.72L77.71 20.72C77.71 21.38 77.81 22 78.01 22.61C78.21 23.22 78.49 23.76 78.86 24.22C79.22 24.68 79.68 25.05 80.23 25.33C80.79 25.61 81.41 25.75 82.09 25.75C83.37 25.75 84.29 25.44 84.83 24.82C85.37 24.2 85.65 23.44 85.67 22.54C85.7 22.07 85.62 21.66 85.44 21.31C85.26 20.96 85.03 20.66 84.73 20.41C84.43 20.16 84.09 19.94 83.7 19.74C83.31 19.53 82.9 19.34 82.45 19.16L81.06 18.51C79.93 17.99 79.07 17.37 78.48 16.64C77.9 15.91 77.6 14.99 77.6 13.92C77.6 13.26 77.7 12.65 77.9 12.09C78.1 11.52 78.4 11.03 78.79 10.6C79.19 10.17 79.7 9.84 80.3 9.6C80.91 9.37 81.62 9.25 82.45 9.25C83.07 9.25 83.65 9.36 84.19 9.59C84.73 9.81 85.19 10.15 85.56 10.61L86.39 9.32L86.59 9.29L86.59 13.85L86.43 13.85C86.43 13.26 86.34 12.71 86.16 12.18C85.98 11.65 85.73 11.19 85.4 10.79C85.06 10.39 84.66 10.08 84.19 9.84C83.71 9.61 83.16 9.49 82.54 9.49C81.5 9.49 80.7 9.78 80.14 10.37C79.57 10.96 79.29 11.68 79.29 12.53C79.29 13.39 79.56 14.03 80.09 14.46C80.62 14.89 81.31 15.3 82.15 15.68L83.76 16.39Z" fill="#FFFFFF" fill-opacity="1.000000" fill-rule="nonzero"/>
		<path d="M96.22 16.39C97.52 17 98.48 17.68 99.09 18.42C99.7 19.16 100 20.11 100 21.26C100 22.72 99.51 23.88 98.54 24.72C97.57 25.57 96.25 26 94.59 26C93.93 26 93.29 25.85 92.68 25.57C92.07 25.29 91.55 24.92 91.13 24.44L90.2 25.93L90 25.9L90 20.72L90.16 20.72C90.16 21.38 90.26 22 90.46 22.61C90.66 23.22 90.94 23.76 91.31 24.22C91.67 24.68 92.13 25.05 92.69 25.33C93.24 25.61 93.86 25.75 94.54 25.75C95.83 25.75 96.74 25.44 97.28 24.82C97.82 24.2 98.1 23.44 98.13 22.54C98.15 22.07 98.07 21.66 97.9 21.31C97.72 20.96 97.48 20.66 97.18 20.41C96.88 20.16 96.54 19.94 96.15 19.74C95.77 19.53 95.35 19.34 94.91 19.16L93.51 18.51C92.39 17.99 91.53 17.37 90.94 16.64C90.35 15.91 90.06 14.99 90.06 13.92C90.06 13.26 90.15 12.65 90.35 12.09C90.55 11.52 90.85 11.03 91.25 10.6C91.64 10.17 92.15 9.84 92.76 9.6C93.37 9.37 94.08 9.25 94.9 9.25C95.52 9.25 96.1 9.36 96.64 9.59C97.18 9.81 97.65 10.15 98.02 10.61L98.84 9.32L99.05 9.29L99.05 13.85L98.88 13.85C98.88 13.26 98.79 12.71 98.61 12.18C98.44 11.65 98.18 11.19 97.85 10.79C97.52 10.39 97.12 10.08 96.64 9.84C96.17 9.61 95.62 9.49 95 9.49C93.96 9.49 93.15 9.78 92.59 10.37C92.03 10.96 91.75 11.68 91.75 12.53C91.75 13.39 92.02 14.03 92.54 14.46C93.08 14.89 93.76 15.3 94.6 15.68L96.22 16.39Z" fill="#FFFFFF" fill-opacity="1.000000" fill-rule="nonzero"/>
	</g>
</svg>
