<svg width="40.000000" height="40.000000" viewBox="0 0 40 40" fill="none" xmlns="http://www.w3.org/2000/svg" xmlns:xlink="http://www.w3.org/1999/xlink">
	<desc>
			Created with Pixso.
	</desc>
	<defs/>
	<path id="Vector" d="M31.12 39.97L8.91 40C4.02 40 0.02 36.01 0.02 31.12L0 8.91C-0.01 4.02 3.98 0.02 8.87 0.02L31.08 0C35.97 -0.01 39.97 3.98 39.97 8.87L40 31.08C40 35.97 36.01 39.97 31.12 39.97ZM31.12 38.86L8.91 38.88Q7.35 38.89 6.01 38.35Q4.59 37.78 3.42 36.6Q2.24 35.43 1.67 34.02Q1.13 32.68 1.13 31.12L1.11 8.91Q1.1 7.35 1.64 6.01Q2.21 4.59 3.38 3.42Q4.56 2.24 5.97 1.67Q7.31 1.13 8.87 1.13L31.08 1.11Q32.64 1.1 33.98 1.64Q35.4 2.21 36.57 3.39Q37.75 4.56 38.32 5.97Q38.86 7.31 38.86 8.87L38.88 31.08Q38.89 32.64 38.35 33.98Q37.78 35.4 36.61 36.57Q35.43 37.75 34.02 38.32Q32.68 38.86 31.12 38.86Z" fill="#101010" fill-opacity="1.000000" fill-rule="evenodd"/>
	<path id="Vector" d="M20 27.77C15.71 27.77 12.22 24.28 12.22 20C12.22 15.71 15.71 12.22 20 12.22C24.28 12.22 27.77 15.71 27.77 20C27.77 24.28 24.28 27.77 20 27.77ZM20 14.44C16.93 14.44 14.44 16.93 14.44 20C14.44 23.06 16.93 25.55 20 25.55C23.06 25.55 25.55 23.06 25.55 20C25.55 16.93 23.06 14.44 20 14.44Z" fill="#101010" fill-opacity="1.000000" fill-rule="nonzero"/>
	<path id="Vector" d="M29.99 11.67C29.99 12.59 29.24 13.33 28.32 13.33C27.4 13.33 26.66 12.59 26.66 11.67C26.66 10.75 27.4 10 28.32 10C29.24 10 29.99 10.75 29.99 11.67Z" fill="#101010" fill-opacity="1.000000" fill-rule="evenodd"/>
	<path id="Vector" d="M26.66 34.43L13.33 34.43C9.05 34.43 5.56 30.95 5.56 26.66L5.56 13.33C5.56 9.05 9.05 5.56 13.33 5.56L26.66 5.56C30.95 5.56 34.43 9.05 34.43 13.33L34.43 26.66C34.43 30.95 30.95 34.43 26.66 34.43ZM13.33 7.78C10.27 7.78 7.78 10.27 7.78 13.33L7.78 26.66C7.78 29.72 10.27 32.21 13.33 32.21L26.66 32.21C29.72 32.21 32.21 29.72 32.21 26.66L32.21 13.33C32.21 10.27 29.72 7.78 26.66 7.78L13.33 7.78Z" fill="#101010" fill-opacity="1.000000" fill-rule="nonzero"/>
</svg>
