<svg width="25.000000" height="25.000000" viewBox="0 0 25 25" fill="none" xmlns="http://www.w3.org/2000/svg" xmlns:xlink="http://www.w3.org/1999/xlink">
	<desc>
			Created with Pixso.
	</desc>
	<defs/>
	<path id="Vector" d="M12.35 13.43C10.24 13.36 8.56 11.63 8.56 9.51C8.56 7.33 10.32 5.57 12.5 5.57C14.67 5.57 16.43 7.33 16.43 9.51C16.42 11.63 14.75 13.36 12.64 13.43C12.56 13.42 12.45 13.42 12.35 13.43Z" stroke="#101010" stroke-opacity="1.000000" stroke-width="1.000000" stroke-linejoin="round"/>
	<path id="Vector" d="M12.5 24.5C9.37 24.5 6.54 23.31 4.41 21.35C4.53 20.22 5.25 19.12 6.53 18.25C9.82 16.07 15.19 16.07 18.46 18.25C19.74 19.12 20.46 20.22 20.58 21.35C18.44 23.31 15.61 24.5 12.5 24.5Z" stroke="#101010" stroke-opacity="1.000000" stroke-width="1.000000" stroke-linejoin="round"/>
	<path id="Vector" d="M24.5 12.5C24.5 5.87 19.12 0.5 12.5 0.5C5.87 0.5 0.5 5.87 0.5 12.5C0.5 19.12 5.87 24.5 12.5 24.5C19.12 24.5 24.5 19.12 24.5 12.5Z" stroke="#101010" stroke-opacity="1.000000" stroke-width="1.000000" stroke-linejoin="round"/>
</svg>
