<svg width="44.000000" height="44.000000" viewBox="0 0 44 44" fill="none" xmlns="http://www.w3.org/2000/svg" xmlns:xlink="http://www.w3.org/1999/xlink">
	<desc>
			Created with Pixso.
	</desc>
	<defs>
		<filter id="filter_374_2167_dd" x="0.000000" y="0.000000" width="44.000000" height="44.000000" filterUnits="userSpaceOnUse" color-interpolation-filters="sRGB">
			<feFlood flood-opacity="0" result="BackgroundImageFix"/>
			<feColorMatrix in="SourceAlpha" type="matrix" values="0 0 0 0 0 0 0 0 0 0 0 0 0 0 0 0 0 0 127 0" result="hardAlpha"/>
			<feOffset dx="0" dy="0"/>
			<feGaussianBlur stdDeviation="1.33333"/>
			<feComposite in2="hardAlpha" operator="out" k2="-1" k3="1"/>
			<feColorMatrix type="matrix" values="0 0 0 0 0.21176 0 0 0 0 0.72549 0 0 0 0 0.98824 0 0 0 1 0"/>
			<feBlend mode="normal" in2="BackgroundImageFix" result="effect_dropShadow_1"/>
			<feBlend mode="normal" in="SourceGraphic" in2="effect_dropShadow_1" result="shape"/>
		</filter>
		<linearGradient x1="22.000000" y1="4.000000" x2="22.000000" y2="40.000000" id="paint_linear_374_2168_0" gradientUnits="userSpaceOnUse">
			<stop stop-color="#37BBFE"/>
			<stop offset="1.000000" stop-color="#007DBB"/>
		</linearGradient>
	</defs>
	<g filter="url(#filter_374_2167_dd)">
		<path id="Vector" d="M40 22C40 31.94 31.94 40 22 40C12.05 40 4 31.94 4 22C4 12.05 12.05 4 22 4C31.94 4 40 12.05 40 22Z" fill="url(#paint_linear_374_2168_0)" fill-opacity="1.000000" fill-rule="evenodd"/>
		<path id="Vector" d="M30.98 14.55C31.14 13.51 30.15 12.7 29.23 13.1L10.89 21.15C10.23 21.44 10.28 22.44 10.97 22.66L14.75 23.87C15.47 24.1 16.25 23.98 16.88 23.54L25.41 17.65C25.67 17.47 25.95 17.84 25.73 18.06L19.59 24.39C18.99 25.01 19.11 26.05 19.83 26.5L26.7 30.81C27.47 31.29 28.46 30.8 28.61 29.87L30.98 14.55Z" fill="#FFFFFF" fill-opacity="1.000000" fill-rule="nonzero"/>
	</g>
</svg>
