<svg width="40.000000" height="40.000000" viewBox="0 0 40 40" fill="none" xmlns="http://www.w3.org/2000/svg" xmlns:xlink="http://www.w3.org/1999/xlink">
	<desc>
			Created with Pixso.
	</desc>
	<defs/>
	<path id="Vector" d="M20 40C31.04 40 40 31.04 40 20C40 8.95 31.04 0 20 0C8.95 0 0 8.95 0 20C0 31.04 8.95 40 20 40ZM27.25 37.5Q23.91 38.88 20 38.88Q16.08 38.88 12.74 37.5Q9.41 36.12 6.64 33.35Q3.87 30.59 2.49 27.25Q1.11 23.91 1.11 20Q1.11 16.08 2.49 12.74Q3.87 9.4 6.64 6.64Q9.41 3.87 12.74 2.49Q16.08 1.11 20 1.11Q23.91 1.11 27.25 2.49Q30.58 3.87 33.35 6.64Q36.12 9.4 37.5 12.74Q38.88 16.08 38.88 20Q38.88 23.91 37.5 27.25Q36.12 30.59 33.35 33.35Q30.58 36.12 27.25 37.5Z" fill="#101010" fill-opacity="1.000000" fill-rule="evenodd"/>
	<path id="Vector" d="M29.98 11.72C30.15 10.57 29.06 9.66 28.04 10.11L7.66 19.06C6.92 19.38 6.98 20.49 7.74 20.73L11.94 22.07C12.74 22.33 13.61 22.2 14.31 21.71L23.79 15.17C24.07 14.97 24.38 15.38 24.14 15.63L17.32 22.66C16.66 23.34 16.79 24.5 17.59 25L25.22 29.78C26.08 30.32 27.18 29.78 27.34 28.75L29.98 11.72Z" fill="#101010" fill-opacity="1.000000" fill-rule="nonzero"/>
</svg>
