<svg width="36.000000" height="36.000000" viewBox="0 0 36 36" fill="none" xmlns="http://www.w3.org/2000/svg" xmlns:xlink="http://www.w3.org/1999/xlink">
	<desc>
			Created with Pixso.
	</desc>
	<defs/>
	<rect id="Property 1=Default" rx="0.000000" width="35.000000" height="35.000000" transform="translate(0.500000 0.500000)" fill="#FFFFFF" fill-opacity="0"/>
	<path id="Vector" d="M12.48 0L23.53 0C33.61 0 36 2.4 36 12.48L36 23.53C36 33.61 33.59 36 23.51 36L12.46 36C2.38 36 0 33.59 0 23.51L0 12.46C0 2.4 2.4 0 12.48 0Z" fill="#0077FF" fill-opacity="1.000000" fill-rule="nonzero"/>
	<path id="Logo" d="M29.44 12C29.61 11.41 29.44 11 28.65 11L26.03 11C25.35 11 25.05 11.37 24.88 11.78C24.88 11.78 23.55 15.22 21.66 17.43C21.04 18.08 20.78 18.28 20.44 18.28C20.27 18.28 20.03 18.08 20.03 17.49L20.03 12C20.03 11.29 19.84 11 19.28 11L15.15 11C14.74 11 14.47 11.33 14.47 11.63C14.47 12.3 15.41 12.46 15.52 14.31L15.52 18.38C15.52 19.26 15.37 19.42 15.04 19.42C14.16 19.42 11.98 15.99 10.7 12.04C10.44 11.31 10.2 11 9.52 11L6.9 11C6.15 11 6 11.37 6 11.78C6 12.51 6.88 16.15 10.14 20.94C12.32 24.22 15.37 26 18.15 26C19.82 26 20.03 25.6 20.03 24.93L20.03 22.44C20.03 21.65 20.18 21.5 20.72 21.5C21.11 21.5 21.77 21.69 23.33 23.27C25.11 25.15 25.41 26 26.4 26L29.03 26C29.78 26 30.16 25.6 29.93 24.83C29.69 24.06 28.84 22.94 27.72 21.59C27.1 20.82 26.18 20.01 25.92 19.6C25.52 19.07 25.63 18.83 25.92 18.38C25.92 18.36 29.12 13.62 29.44 12Z" fill="#FFFFFF" fill-opacity="1.000000" fill-rule="evenodd"/>
</svg>
