<svg width="40.000000" height="40.000000" viewBox="0 0 40 40" fill="none" xmlns="http://www.w3.org/2000/svg" xmlns:xlink="http://www.w3.org/1999/xlink">
	<desc>
			Created with Pixso.
	</desc>
	<defs/>
	<rect id="ะะบ" rx="0.000000" width="38.888889" height="38.888889" transform="translate(0.555556 0.555556)" fill="#FFFFFF" fill-opacity="0"/>
	<path id="Vector" d="M26.14 0L13.87 0C2.66 0 0 2.66 0 13.85L0 26.12C0 37.33 2.64 40 13.85 40L26.12 40C37.33 40 40 37.35 40 26.14L40 13.87C40 2.66 37.35 0 26.14 0ZM13.87 1.11L26.14 1.11Q34.08 1.11 36.48 3.51Q38.88 5.92 38.88 13.87L38.88 26.14Q38.88 34.08 36.48 36.48Q34.07 38.88 26.12 38.88L13.85 38.88Q5.91 38.88 3.51 36.48Q1.11 34.07 1.11 26.12L1.11 13.85Q1.11 5.92 3.51 3.51Q5.92 1.11 13.87 1.11Z" fill="#101010" fill-opacity="1.000000" fill-rule="evenodd"/>
	<path id="Logo" d="M32.71 13.34C32.9 12.68 32.71 12.22 31.84 12.22L28.92 12.22C28.17 12.22 27.84 12.63 27.65 13.09C27.65 13.09 26.17 16.91 24.07 19.37C23.38 20.09 23.09 20.31 22.71 20.31C22.52 20.31 22.25 20.09 22.25 19.43L22.25 13.34C22.25 12.55 22.04 12.22 21.42 12.22L16.83 12.22C16.37 12.22 16.08 12.59 16.08 12.92C16.08 13.66 17.12 13.84 17.25 15.9L17.25 20.42C17.25 21.41 17.08 21.58 16.71 21.58C15.73 21.58 13.31 17.77 11.89 13.38C11.6 12.57 11.33 12.22 10.58 12.22L7.66 12.22C6.83 12.22 6.66 12.63 6.66 13.09C6.66 13.91 7.64 17.94 11.27 23.27C13.69 26.91 17.08 28.88 20.17 28.88C22.02 28.88 22.25 28.45 22.25 27.7L22.25 24.94C22.25 24.06 22.42 23.88 23.02 23.88C23.46 23.88 24.19 24.1 25.92 25.86C27.9 27.94 28.23 28.88 29.34 28.88L32.26 28.88C33.09 28.88 33.51 28.45 33.26 27.59C32.99 26.73 32.05 25.48 30.8 23.99C30.11 23.14 29.09 22.24 28.8 21.78C28.36 21.19 28.48 20.92 28.8 20.42C28.8 20.4 32.36 15.13 32.71 13.34Z" fill="#101010" fill-opacity="1.000000" fill-rule="evenodd"/>
</svg>
