<svg width="14.000000" height="18.000000" viewBox="0 0 14 18" fill="none" xmlns="http://www.w3.org/2000/svg" xmlns:xlink="http://www.w3.org/1999/xlink">
	<desc>
			Created with Pixso.
	</desc>
	<defs/>
	<path id="Vector" d="M7 0C3.15 0 0 3.11 0 6.92C0 12.73 6.29 17.65 6.58 17.86C6.71 17.93 6.86 18 7 18C7.13 18 7.28 17.93 7.41 17.86C7.7 17.65 14 12.73 14 6.92C14 3.11 10.84 0 7 0ZM7.15 17.43Q7.26 17.34 7.46 17.18Q7.83 16.87 8.22 16.51Q9.43 15.4 10.42 14.17Q11.78 12.5 12.55 10.84Q13.5 8.81 13.5 6.92Q13.5 6.25 13.36 5.61Q13.23 5.01 12.98 4.43Q12.77 3.94 12.49 3.5Q12.11 2.9 11.59 2.38Q11.12 1.92 10.58 1.56Q10.08 1.24 9.52 1Q8.96 0.77 8.38 0.64Q7.7 0.5 7 0.5Q6.29 0.5 5.61 0.64Q5.03 0.77 4.47 1Q3.91 1.24 3.41 1.56Q2.87 1.92 2.4 2.38Q1.88 2.9 1.5 3.5Q1.22 3.94 1.01 4.43Q0.76 5.01 0.63 5.61Q0.5 6.25 0.5 6.92Q0.5 8.81 1.44 10.84Q2.21 12.5 3.57 14.17Q4.56 15.4 5.77 16.51Q6.16 16.87 6.53 17.18Q6.73 17.34 6.84 17.43Q6.97 17.5 7 17.5Q7.02 17.5 7.15 17.43ZM3.76 6.25Q3.7 6.58 3.7 6.92Q3.7 7.26 3.76 7.58Q3.83 7.89 3.96 8.19Q4.07 8.45 4.22 8.68Q4.41 8.98 4.67 9.23Q4.9 9.46 5.17 9.64Q5.43 9.81 5.71 9.93Q6 10.05 6.3 10.12Q6.64 10.19 7 10.19Q7.35 10.19 7.69 10.12Q7.99 10.05 8.28 9.93Q8.56 9.81 8.82 9.64Q9.09 9.46 9.32 9.23Q9.58 8.98 9.77 8.68Q9.92 8.45 10.03 8.19Q10.16 7.89 10.23 7.58Q10.29 7.26 10.29 6.92Q10.29 6.58 10.23 6.25Q10.16 5.94 10.03 5.65Q9.92 5.39 9.77 5.16Q9.58 4.86 9.32 4.61Q9.09 4.37 8.82 4.19Q8.56 4.03 8.28 3.91Q7.99 3.79 7.69 3.72Q7.35 3.65 7 3.65Q6.64 3.65 6.3 3.72Q6 3.79 5.71 3.91Q5.43 4.03 5.17 4.19Q4.9 4.37 4.67 4.61Q4.41 4.86 4.22 5.16Q4.07 5.39 3.96 5.65Q3.83 5.94 3.76 6.25ZM7 9.69C5.45 9.69 4.2 8.44 4.2 6.92C4.2 5.4 5.45 4.15 7 4.15C8.54 4.15 9.79 5.4 9.79 6.92C9.79 8.44 8.54 9.69 7 9.69Z" fill="#FFFFFF" fill-opacity="1.000000" fill-rule="evenodd"/>
</svg>
