<svg width="14.000000" height="18.000000" viewBox="0 0 14 18" fill="none" xmlns="http://www.w3.org/2000/svg" xmlns:xlink="http://www.w3.org/1999/xlink">
	<desc>
			Created with Pixso.
	</desc>
	<defs/>
	<path id="Vector" d="M7 0C3.15 0 0 3.11 0 6.92C0 12.73 6.29 17.65 6.58 17.86C6.71 17.93 6.86 18 7 18C7.13 18 7.28 17.93 7.41 17.86C7.7 17.65 14 12.73 14 6.92C14 3.11 10.84 0 7 0ZM7 9.69C5.45 9.69 4.2 8.44 4.2 6.92C4.2 5.4 5.45 4.15 7 4.15C8.54 4.15 9.79 5.4 9.79 6.92C9.79 8.44 8.54 9.69 7 9.69Z" fill="#FFFFFF" fill-opacity="1.000000" fill-rule="nonzero"/>
</svg>
