<svg width="17.999023" height="18.000000" viewBox="0 0 17.999 18" fill="none" xmlns="http://www.w3.org/2000/svg" xmlns:xlink="http://www.w3.org/1999/xlink">
	<desc>
			Created with Pixso.
	</desc>
	<defs/>
	<path id="Vector" d="M9.06 0C4.08 -0.05 0.04 3.95 0 8.96C-0.05 13.87 3.94 17.93 8.86 17.99C13.83 18.05 17.95 14.07 17.99 9.16C18.04 4.11 14.07 0.04 9.06 0ZM11.33 9.56C10.15 10.97 8.97 12.39 7.78 13.81C7.45 14.19 7.06 14.27 6.68 13.93C6.32 13.62 6.34 13.24 6.64 12.87C7.7 11.6 8.76 10.32 9.86 9C8.81 7.69 7.77 6.43 6.78 5.13C6.61 4.91 6.56 4.46 6.67 4.23C6.77 4.04 7.18 3.94 7.46 3.92C7.62 3.9 7.82 4.11 7.95 4.26C9.08 5.64 10.2 7.04 11.32 8.42C11.63 8.8 11.65 9.17 11.33 9.56Z" fill="#FFFFFF" fill-opacity="1.000000" fill-rule="nonzero"/>
</svg>
