<svg width="18.499023" height="18.500000" viewBox="0 0 18.499 18.5" fill="none" xmlns="http://www.w3.org/2000/svg" xmlns:xlink="http://www.w3.org/1999/xlink">
	<desc>
			Created with Pixso.
	</desc>
	<defs/>
	<path id="Vector" d="M0.25 9.21C0.2 14.12 4.19 18.18 9.11 18.24C14.08 18.3 18.2 14.32 18.24 9.41C18.29 4.36 14.32 0.29 9.31 0.25C4.33 0.2 0.29 4.2 0.25 9.21ZM8.03 14.06C7.7 14.44 7.31 14.52 6.93 14.18C6.57 13.87 6.59 13.49 6.89 13.12C7.95 11.85 9.01 10.57 10.11 9.25C9.06 7.94 8.02 6.68 7.03 5.38C6.86 5.16 6.81 4.71 6.92 4.48C7.02 4.29 7.43 4.19 7.71 4.17C7.87 4.15 8.07 4.36 8.2 4.51C9.33 5.89 10.45 7.29 11.57 8.67C11.88 9.05 11.9 9.42 11.58 9.81C10.4 11.22 9.22 12.64 8.03 14.06Z" stroke="#FFFFFF" stroke-opacity="1.000000" stroke-width="0.500000"/>
</svg>
