<svg width="18.500000" height="18.500000" viewBox="0 0 18.5 18.5" fill="none" xmlns="http://www.w3.org/2000/svg" xmlns:xlink="http://www.w3.org/1999/xlink">
	<desc>
			Created with Pixso.
	</desc>
	<defs/>
	<path id="Vector" d="M9.25 18.25C4.27 18.25 0.25 14.22 0.25 9.25C0.25 4.27 4.27 0.25 9.25 0.25C14.22 0.25 18.25 4.27 18.25 9.25C18.25 14.22 14.22 18.25 9.25 18.25Z" stroke="#FFFFFF" stroke-opacity="1.000000" stroke-width="0.500000"/>
	<path id="Vector" d="M11.37 12.67L10.55 13.77C9.78 14.82 9.14 15.08 8.58 15.08C7.65 15.08 7.3 14.51 7.3 13.91C7.3 13.65 7.38 13.3 7.43 13.09L8.75 7.76L7.2 7.76C7.18 7.76 7.16 7.75 7.14 7.75C7.02 7.72 6.95 7.6 6.98 7.48L7.06 7.18C7.09 7.06 7.18 6.97 7.3 6.94L10.32 6.39C10.38 6.38 10.45 6.38 10.51 6.4C10.75 6.46 10.9 6.7 10.84 6.94L9.16 13.65C9.14 13.74 9.19 13.83 9.27 13.87C9.36 13.9 9.46 13.88 9.52 13.81L10.85 12.3C10.97 12.17 11.16 12.14 11.31 12.25C11.31 12.25 11.31 12.25 11.31 12.25C11.44 12.35 11.47 12.54 11.37 12.67Z" fill="#FFFFFF" fill-opacity="1.000000" fill-rule="nonzero"/>
	<path id="Vector" d="M11.52 4.29C11.52 4.38 11.5 4.53 11.47 4.66C11.34 5.22 10.85 5.6 10.22 5.6C9.56 5.6 9.2 5.18 9.2 4.72C9.2 4.6 9.22 4.47 9.25 4.35C9.38 3.78 9.87 3.41 10.5 3.41C11.16 3.41 11.52 3.83 11.52 4.29Z" fill="#FFFFFF" fill-opacity="1.000000" fill-rule="nonzero"/>
</svg>
