<svg width="18.000000" height="18.000000" viewBox="0 0 18 18" fill="none" xmlns="http://www.w3.org/2000/svg" xmlns:xlink="http://www.w3.org/1999/xlink">
	<desc>
			Created with Pixso.
	</desc>
	<defs/>
	<path id="Vector" d="M18 9C18 13.97 13.97 18 9 18C4.02 18 0 13.97 0 9C0 4.02 4.02 0 9 0C13.97 0 18 4.02 18 9Z" fill="#FFFFFF" fill-opacity="1.000000" fill-rule="nonzero"/>
	<path id="Vector" d="M11.12 12.42L10.3 13.52C9.53 14.57 8.89 14.83 8.33 14.83C7.4 14.83 7.05 14.26 7.05 13.66C7.05 13.4 7.13 13.05 7.18 12.84L8.5 7.51L6.95 7.51C6.93 7.51 6.91 7.5 6.89 7.5C6.77 7.47 6.7 7.35 6.73 7.23L6.81 6.93C6.84 6.81 6.93 6.72 7.05 6.69L10.07 6.14C10.13 6.13 10.2 6.13 10.26 6.15C10.5 6.21 10.65 6.45 10.59 6.69L8.91 13.4C8.89 13.49 8.94 13.58 9.02 13.62C9.11 13.65 9.21 13.63 9.27 13.56L10.6 12.05C10.72 11.92 10.91 11.89 11.06 12C11.06 12 11.06 12 11.06 12C11.19 12.1 11.22 12.29 11.12 12.42Z" fill="#000000" fill-opacity="1.000000" fill-rule="nonzero"/>
	<path id="Vector" d="M11.27 4.04C11.27 4.13 11.25 4.28 11.22 4.41C11.09 4.97 10.6 5.35 9.97 5.35C9.31 5.35 8.95 4.93 8.95 4.47C8.95 4.35 8.97 4.22 9 4.1C9.13 3.53 9.62 3.16 10.25 3.16C10.91 3.16 11.27 3.58 11.27 4.04Z" fill="#000000" fill-opacity="1.000000" fill-rule="nonzero"/>
</svg>
