<svg width="36.000000" height="36.000000" viewBox="0 0 36 36" fill="none" xmlns="http://www.w3.org/2000/svg" xmlns:xlink="http://www.w3.org/1999/xlink">
	<desc>
			Created with Pixso.
	</desc>
	<defs/>
	<path id="Vector" d="M28.01 35.98L8.02 36C3.62 36 0.02 32.41 0.01 28.01L0 8.02C-0.01 3.62 3.58 0.02 7.98 0.01L27.97 0C32.37 -0.01 35.97 3.58 35.98 7.98L36 27.97C36 32.37 32.41 35.97 28.01 35.98ZM28.01 34.98L8.02 35Q6.61 35 5.41 34.51Q4.13 34 3.08 32.94Q2.02 31.89 1.5 30.62Q1.02 29.41 1.01 28.01L1 8.02Q0.99 6.61 1.48 5.41Q1.99 4.13 3.05 3.08Q4.1 2.02 5.37 1.5Q6.58 1.02 7.98 1.01L27.97 1Q29.38 0.99 30.58 1.48Q31.86 1.99 32.91 3.05Q33.97 4.1 34.49 5.37Q34.97 6.58 34.98 7.98L35 27.97Q35 29.38 34.51 30.58Q34 31.86 32.94 32.92Q31.89 33.97 30.62 34.49Q29.41 34.97 28.01 34.98Z" fill="#FFFFFF" fill-opacity="1.000000" fill-rule="evenodd"/>
	<path id="Vector" d="M18 24.99C14.14 24.99 11 21.85 11 18C11 14.14 14.14 11 18 11C21.85 11 24.99 14.14 24.99 18C24.99 21.85 21.85 24.99 18 24.99ZM18 13C15.24 13 13 15.24 13 18C13 20.75 15.24 22.99 18 22.99C20.75 22.99 22.99 20.75 22.99 18C22.99 15.24 20.75 13 18 13Z" fill="#FFFFFF" fill-opacity="1.000000" fill-rule="nonzero"/>
	<path id="Vector" d="M26.99 10.5C26.99 11.33 26.32 12 25.49 12C24.66 12 23.99 11.33 23.99 10.5C23.99 9.67 24.66 9 25.49 9C26.32 9 26.99 9.67 26.99 10.5Z" fill="#FFFFFF" fill-opacity="1.000000" fill-rule="evenodd"/>
	<path id="Vector" d="M23.99 30.99L12 30.99C8.14 30.99 5 27.85 5 23.99L5 12C5 8.14 8.14 5 12 5L23.99 5C27.85 5 30.99 8.14 30.99 12L30.99 23.99C30.99 27.85 27.85 30.99 23.99 30.99ZM12 7C9.24 7 7 9.24 7 12L7 23.99C7 26.75 9.24 28.99 12 28.99L23.99 28.99C26.75 28.99 28.99 26.75 28.99 23.99L28.99 12C28.99 9.24 26.75 7 23.99 7L12 7Z" fill="#FFFFFF" fill-opacity="1.000000" fill-rule="nonzero"/>
</svg>
