<svg width="323.000000" height="84.000000" viewBox="0 0 323 84" fill="none" xmlns="http://www.w3.org/2000/svg" xmlns:xlink="http://www.w3.org/1999/xlink">
	<desc>
			Created with Pixso.
	</desc>
	<defs>
		<clipPath id="clip374_1971">
			<rect id="Frame" rx="0.000000" width="322.000000" height="83.000000" transform="translate(0.500000 0.500000)" fill="white" fill-opacity="0"/>
		</clipPath>
	</defs>
	<g clip-path="url(#clip374_1971)">
		<path id="Vector" d="M53.2 25.67L52.55 25.67L53.51 18.78C53.73 17.62 53.79 16.52 53.73 15.49C53.65 14.47 53.35 13.59 52.82 12.87C52.29 12.15 51.49 11.57 50.4 11.19C49.32 10.79 47.87 10.59 46 10.59L30.23 10.59L25.2 43.91L32.59 43.91C34.46 43.91 35.97 43.77 37.15 43.47C38.33 43.19 39.3 42.73 40.04 42.11C40.79 41.49 41.36 40.66 41.75 39.64C42.15 38.62 42.44 37.38 42.66 35.94L43.09 33L43.74 33L40.2 56.48L39.55 56.48L40.08 53.42C40.3 51.96 40.36 50.74 40.3 49.75C40.22 48.77 39.91 47.97 39.34 47.35C38.77 46.73 37.92 46.27 36.82 45.99C35.72 45.71 34.22 45.55 32.38 45.55L24.98 45.55L19.95 79.09C19.73 80.61 20.17 81.47 21.23 81.65C22.31 81.83 23.59 81.93 25.08 81.93L30.76 81.93L30.66 82.59L0 82.59L0.09 81.93L2.55 81.93C4.12 81.93 5.32 81.83 6.15 81.61C6.97 81.39 7.49 80.55 7.7 79.11L17.79 12.33C18 10.87 17.63 10.05 16.67 9.87C15.7 9.71 14.46 9.61 12.97 9.61L10.93 9.61L11.02 8.95L55.63 8.95L53.2 25.67Z" fill="#2C2C2C" fill-opacity="1.000000" fill-rule="nonzero"/>
		<path id="Vector" d="M85.14 40.4C85.28 43.47 84.53 46.23 82.88 48.71C81.23 51.2 79.13 53.38 76.55 55.26C73.98 57.16 71.11 58.79 67.92 60.19C64.74 61.57 61.65 62.69 58.64 63.57C58.78 64.73 59.03 66.13 59.39 67.78C59.74 69.42 60.33 70.96 61.16 72.42C61.98 73.88 63.1 75.12 64.54 76.15C65.97 77.17 67.78 77.67 70 77.67C71.5 77.67 72.88 77.39 74.13 76.79C75.39 76.21 76.53 75.49 77.57 74.6C78.62 73.72 79.56 72.74 80.42 71.66C81.29 70.58 82.04 69.52 82.69 68.5L83.12 68.72C82.41 70.46 81.45 72.24 80.27 74.02C79.09 75.81 77.69 77.45 76.08 78.95C74.47 80.45 72.64 81.65 70.61 82.61C68.57 83.55 66.31 84.04 63.81 84.04C60.88 84.04 58.41 83.39 56.42 82.13C54.41 80.85 52.8 79.23 51.6 77.27C50.38 75.3 49.52 73.18 48.97 70.94C48.44 68.68 48.12 66.57 48.06 64.61C47.99 61.41 48.4 57.8 49.3 53.8C50.19 49.79 51.64 46.01 53.65 42.45C55.65 38.88 58.27 35.9 61.53 33.5C64.78 31.09 68.71 29.89 73.27 29.89C77.12 29.89 80.05 30.89 82.06 32.89C84.04 34.82 85.06 37.36 85.14 40.4ZM76.67 39.76C76.75 38.66 76.75 37.58 76.67 36.48C76.59 35.38 76.41 34.4 76.14 33.54C75.84 32.65 75.45 31.95 74.9 31.41C74.37 30.87 73.7 30.59 72.91 30.59C70.56 30.59 68.45 31.83 66.58 34.3C64.72 36.78 63.16 39.74 61.92 43.21C60.67 46.67 59.74 50.21 59.13 53.86C58.52 57.5 58.33 60.49 58.54 62.81C60.82 61.87 63.04 60.57 65.19 58.92C67.33 57.28 69.24 55.44 70.93 53.42C72.6 51.38 73.98 49.17 75 46.81C76.04 44.43 76.59 42.08 76.67 39.76Z" fill="#2C2C2C" fill-opacity="1.000000" fill-rule="nonzero"/>
		<path id="Vector" d="M98.65 84C96.21 84 94.23 83.46 92.69 82.35C91.16 81.25 89.98 79.91 89.15 78.31C88.33 76.71 87.78 75.02 87.48 73.28C87.19 71.54 87.01 70 86.95 68.7C86.87 66.43 87.07 63.89 87.54 61.05C88.01 58.2 88.74 55.36 89.74 52.48C90.75 49.59 91.99 46.79 93.44 44.01C94.9 41.24 96.62 38.8 98.59 36.7C100.56 34.6 102.74 32.89 105.14 31.61C107.54 30.33 110.13 29.73 112.9 29.81C114.48 29.81 115.91 30.25 117.19 31.11C118.47 31.99 119.37 33.23 119.86 34.82L123.31 30.45L129.85 31.55L123.09 70.66C122.95 71.54 122.77 72.56 122.6 73.76C122.42 74.96 122.36 76.09 122.44 77.09C122.52 78.11 122.75 78.99 123.19 79.71C123.62 80.43 124.29 80.81 125.23 80.81C126.02 80.81 126.8 80.49 127.59 79.83C128.38 79.17 129.14 78.33 129.89 77.27C130.64 76.21 131.37 75.02 132.09 73.72C132.8 72.42 133.41 71.14 133.92 69.9L134.35 70.12C133.71 71.64 133 73.22 132.21 74.82C131.42 76.43 130.5 77.93 129.42 79.31C128.34 80.69 127.06 81.81 125.57 82.69C124.07 83.58 122.3 84 120.32 84C118.67 84 117.33 83.63 116.29 82.89C115.24 82.17 114.46 81.19 113.93 79.99C113.4 78.79 113.1 77.43 113.06 75.89C113.02 74.36 113.16 72.76 113.43 71.08L116.11 54.8C115.76 56.18 115.26 57.88 114.65 59.89C114.04 61.89 113.38 63.97 112.61 66.11C111.86 68.26 111 70.42 110.03 72.56C109.07 74.7 108.01 76.63 106.87 78.29C105.73 79.97 104.45 81.33 103.06 82.39C101.72 83.46 100.22 84 98.65 84ZM119.67 35.38C118.67 33.27 117.01 32.13 114.73 31.99C112.59 31.91 110.68 32.59 108.99 34.02C107.3 35.44 105.83 37.32 104.55 39.64C103.27 41.96 102.17 44.55 101.29 47.39C100.38 50.24 99.65 53.08 99.08 55.9C98.51 58.75 98.1 61.41 97.84 63.87C97.59 66.35 97.51 68.36 97.57 69.88C97.57 70.98 97.67 72.06 97.84 73.16C98.02 74.26 98.3 75.25 98.65 76.11C99 76.99 99.52 77.69 100.14 78.23C100.79 78.77 101.58 79.05 102.5 79.05C103.86 79.05 105.16 78.25 106.36 76.65C107.58 75.04 108.76 72.98 109.9 70.48C111.04 67.98 112.1 65.17 113.06 62.13C114.02 59.07 114.91 56.08 115.7 53.18C116.48 50.28 117.15 47.63 117.68 45.27C118.21 42.91 118.59 41.14 118.8 39.96L119.67 35.38Z" fill="#2C2C2C" fill-opacity="1.000000" fill-rule="nonzero"/>
		<path id="Vector" d="M172.44 29.93C174.72 29.93 176.68 30.63 178.33 32.01C179.99 33.39 181.01 35 181.44 36.82C181.09 38.72 180.36 40.32 179.24 41.68C178.14 43.03 176.76 43.71 175.11 43.71C174.25 43.71 173.44 43.41 172.69 42.79C171.94 42.16 171.28 41.38 170.71 40.44C170.14 39.5 169.68 38.44 169.37 37.28C169.06 36.12 168.86 34.96 168.78 33.78C167.64 33.78 166.46 34.52 165.24 36.02C164.02 37.52 162.84 39.44 161.7 41.8C160.56 44.17 159.44 46.83 158.38 49.77C157.3 52.72 156.3 55.7 155.37 58.72C154.45 61.75 153.64 64.63 152.95 67.36C152.27 70.08 151.75 72.4 151.4 74.28L150.12 82.59L139.6 82.59C140.39 77.57 141.14 72.72 141.86 68.08C142.22 66.11 142.55 64.09 142.89 62.01C143.2 59.93 143.53 57.9 143.85 55.9C144.16 53.9 144.46 52.02 144.72 50.27C144.97 48.53 145.21 46.99 145.4 45.69C145.68 43.87 145.91 42.25 146.09 40.82C146.27 39.4 146.33 38.32 146.25 37.6C146.25 36.8 146.11 36.04 145.82 35.3C145.52 34.58 144.95 34.2 144.11 34.2C142.97 34.2 141.9 34.56 140.94 35.3C139.98 36.02 139.11 36.9 138.36 37.92C137.62 38.94 136.95 40 136.38 41.08C135.81 42.19 135.38 43.05 135.1 43.71L134.45 43.61C135.02 42.31 135.73 40.86 136.6 39.3C137.46 37.74 138.52 36.26 139.82 34.88C141.1 33.5 142.59 32.33 144.26 31.37C145.93 30.43 147.86 29.95 150 29.95C152.28 29.95 153.88 30.63 154.78 31.97C155.67 33.31 156.2 34.9 156.33 36.72C156.47 38.4 156.45 40.04 156.28 41.68C156.1 43.33 155.9 44.77 155.69 45.99L153.01 63.47C154.09 59.55 155.27 55.58 156.61 51.62C157.93 47.65 159.4 44.05 161.01 40.8C162.63 37.56 164.38 34.94 166.26 32.93C168.17 30.93 170.21 29.93 172.44 29.93Z" fill="#2C2C2C" fill-opacity="1.000000" fill-rule="nonzero"/>
		<path id="Vector" d="M201.4 82.01L201.4 82.55L181.56 82.55L181.56 82.01L182.31 82.01C183.88 82.01 185.12 81.91 186 81.69C186.89 81.47 187.34 80.57 187.34 78.97L187.44 6.12C187.44 4.82 186.97 3.74 186.04 2.9C185.12 2.06 183.82 1.72 182.19 1.86L181.54 1.86L181.54 1.42L195.5 0L195.6 78.97C195.6 80.57 196.05 81.47 196.93 81.69C197.82 81.91 199.06 82.01 200.63 82.01L201.4 82.01Z" fill="#2C2C2C" fill-opacity="1.000000" fill-rule="nonzero"/>
		<path id="Vector" d="M212.11 57C212.11 59.41 212.39 61.97 212.92 64.71C213.45 67.44 214.33 69.98 215.55 72.3C216.77 74.62 218.36 76.59 220.33 78.15C222.3 79.71 224.75 80.49 227.68 80.49C233.48 80.49 237.87 78.13 240.87 73.38L241.31 73.6C239.81 76.51 237.69 78.97 234.98 80.97C232.26 82.97 228.86 83.97 224.79 83.97C220.56 83.97 217.09 83.13 214.33 81.47C211.58 79.79 209.4 77.67 207.79 75.08C206.17 72.5 205.05 69.62 204.4 66.45C203.76 63.29 203.44 60.25 203.44 57.34C203.44 54.72 203.77 51.84 204.46 48.65C205.15 45.49 206.29 42.51 207.9 39.7C209.52 36.9 211.62 34.58 214.23 32.71C216.85 30.85 220.07 29.93 223.95 29.93C227.17 29.93 229.92 30.61 232.2 31.95C234.48 33.29 236.33 35 237.73 37.04C239.12 39.08 240.15 41.34 240.78 43.81C241.42 46.29 241.74 48.69 241.74 51.02C241.74 52.04 241.7 53.04 241.64 54.02C241.56 55 241.42 56 241.21 57.02L212.11 57.02L212.11 57ZM230.98 55.7C231.77 55.7 232.36 55.44 232.75 54.94C233.15 54.44 233.44 53.84 233.62 53.14C233.8 52.44 233.89 51.72 233.93 50.96C233.97 50.19 233.99 49.55 233.99 49.05C233.99 47.45 233.84 45.59 233.5 43.49C233.19 41.38 232.64 39.38 231.89 37.48C231.14 35.6 230.12 33.98 228.84 32.67C227.56 31.37 225.91 30.71 223.91 30.71C221.69 30.71 219.84 31.65 218.32 33.55C216.83 35.46 215.63 37.7 214.73 40.32C213.82 42.95 213.17 45.67 212.74 48.51C212.31 51.36 212.09 53.76 212.09 55.72L230.98 55.72L230.98 55.7Z" fill="#2C2C2C" fill-opacity="1.000000" fill-rule="nonzero"/>
		<path id="Vector" d="M270.56 52.98C274.79 54.94 277.87 57.12 279.84 59.53C281.81 61.93 282.79 64.99 282.79 68.7C282.79 73.42 281.22 77.17 278.07 79.89C274.93 82.61 270.68 84 265.31 84C263.17 84 261.1 83.53 259.14 82.63C257.17 81.73 255.5 80.51 254.14 78.97L251.14 83.77L250.49 83.67L250.49 66.96L251.02 66.96C251.02 69.08 251.33 71.1 251.98 73.06C252.63 75.02 253.53 76.77 254.71 78.25C255.89 79.75 257.37 80.95 259.16 81.85C260.95 82.75 262.95 83.21 265.15 83.21C269.3 83.21 272.25 82.21 274 80.21C275.75 78.21 276.66 75.75 276.73 72.84C276.81 71.32 276.56 69.98 275.99 68.86C275.42 67.74 274.65 66.75 273.69 65.95C272.72 65.15 271.62 64.43 270.36 63.77C269.1 63.11 267.77 62.49 266.33 61.91L261.83 59.83C258.19 58.14 255.42 56.12 253.52 53.76C251.63 51.4 250.66 48.45 250.66 44.97C250.66 42.87 250.98 40.88 251.63 39.06C252.28 37.24 253.24 35.64 254.52 34.26C255.8 32.87 257.43 31.79 259.39 31.03C261.36 30.27 263.66 29.89 266.31 29.89C268.32 29.89 270.19 30.25 271.94 30.99C273.69 31.71 275.18 32.81 276.38 34.28L279.05 30.13L279.7 30.03L279.7 44.77L279.17 44.77C279.17 42.87 278.88 41.06 278.31 39.36C277.74 37.66 276.91 36.16 275.85 34.88C274.77 33.59 273.47 32.57 271.94 31.81C270.4 31.05 268.63 30.67 266.63 30.67C263.27 30.67 260.67 31.61 258.86 33.51C257.03 35.42 256.13 37.74 256.13 40.5C256.13 43.27 257 45.35 258.71 46.73C260.42 48.11 262.64 49.43 265.35 50.66L270.56 52.98Z" fill="#2C2C2C" fill-opacity="1.000000" fill-rule="nonzero"/>
		<path id="Vector" d="M310.79 52.98C315.01 54.94 318.1 57.12 320.07 59.53C322.03 61.93 323.01 64.99 323.01 68.7C323.01 73.42 321.44 77.17 318.3 79.89C315.15 82.61 310.9 84 305.54 84C303.39 84 301.33 83.53 299.36 82.63C297.4 81.73 295.73 80.51 294.37 78.97L291.36 83.77L290.71 83.67L290.71 66.96L291.24 66.96C291.24 69.08 291.56 71.1 292.21 73.06C292.85 75.02 293.76 76.77 294.94 78.25C296.12 79.75 297.59 80.95 299.38 81.85C301.17 82.75 303.18 83.21 305.38 83.21C309.53 83.21 312.48 82.21 314.23 80.21C315.98 78.21 316.88 75.75 316.96 72.84C317.04 71.32 316.78 69.98 316.21 68.86C315.64 67.74 314.88 66.75 313.91 65.95C312.95 65.15 311.85 64.43 310.59 63.77C309.33 63.11 307.99 62.49 306.56 61.91L302.06 59.83C298.42 58.14 295.65 56.12 293.74 53.76C291.85 51.4 290.89 48.45 290.89 44.97C290.89 42.87 291.2 40.88 291.85 39.06C292.5 37.24 293.47 35.64 294.74 34.26C296.02 32.87 297.65 31.79 299.62 31.03C301.59 30.27 303.89 29.89 306.54 29.89C308.54 29.89 310.41 30.25 312.16 30.99C313.91 31.71 315.41 32.81 316.6 34.28L319.28 30.13L319.93 30.03L319.93 44.77L319.4 44.77C319.4 42.87 319.1 41.06 318.53 39.36C317.96 37.66 317.14 36.16 316.07 34.88C314.99 33.59 313.7 32.57 312.16 31.81C310.63 31.05 308.86 30.67 306.85 30.67C303.49 30.67 300.9 31.61 299.09 33.51C297.26 35.42 296.35 37.74 296.35 40.5C296.35 43.27 297.22 45.35 298.93 46.73C300.64 48.11 302.86 49.43 305.58 50.66L310.79 52.98Z" fill="#2C2C2C" fill-opacity="1.000000" fill-rule="nonzero"/>
		<path id="Kpop store" d="M80.34 16L79.63 16L79.63 4.36L80.34 4.36L80.34 11.12L80.42 11.12L86.56 4.36L87.5 4.36L82.45 9.87L87.45 16L86.57 16L81.99 10.37L80.34 12.21L80.34 16ZM131.49 7.27L133.33 7.27L133.33 7.89L131.49 7.89L131.49 13.93C131.49 14.99 132.2 15.47 132.97 15.47C133.22 15.47 133.39 15.42 133.56 15.37L133.73 16C133.52 16.07 133.28 16.14 132.92 16.14C131.83 16.14 130.8 15.38 130.8 14.06L130.8 7.89L129.52 7.89L129.52 7.27L130.8 7.27L130.8 5.18L131.49 5.18L131.49 7.27ZM90.13 19.27L89.43 19.27L89.43 7.27L90.11 7.27L90.11 9.22L90.2 9.22C90.61 8.1 91.5 7.14 93 7.14C95.12 7.14 96.49 9.02 96.49 11.66C96.49 14.29 95.11 16.18 93.01 16.18C91.52 16.18 90.6 15.22 90.2 14.09L90.13 14.09L90.13 19.27ZM105.86 11.66C105.86 14.28 104.29 16.18 102.13 16.18C99.97 16.18 98.4 14.28 98.4 11.66C98.4 9.03 99.97 7.14 102.13 7.14C104.28 7.14 105.86 9.04 105.86 11.66ZM108.94 19.27L108.25 19.27L108.25 7.27L108.92 7.27L108.92 9.22L109.01 9.22C109.42 8.1 110.31 7.14 111.81 7.14C113.93 7.14 115.31 9.02 115.31 11.66C115.31 14.29 113.92 16.18 111.83 16.18C110.34 16.18 109.41 15.22 109.01 14.09L108.94 14.09L108.94 19.27ZM124.92 7.14C126.4 7.14 127.32 7.87 127.74 9.15L127.1 9.32C126.78 8.37 126.12 7.77 124.92 7.77C123.64 7.77 122.74 8.47 122.74 9.49C122.74 10.32 123.29 10.86 124.42 11.14L125.76 11.47C127.14 11.81 127.85 12.59 127.85 13.72C127.85 15.17 126.58 16.18 124.76 16.18C123.14 16.18 122.06 15.39 121.76 13.97L122.42 13.8C122.67 14.94 123.47 15.54 124.76 15.54C126.18 15.54 127.14 14.8 127.14 13.74C127.14 12.93 126.62 12.37 125.58 12.12L124.19 11.77C122.76 11.43 122.06 10.64 122.06 9.51C122.06 8.1 123.26 7.14 124.92 7.14ZM142.78 11.66C142.78 14.28 141.21 16.18 139.05 16.18C136.89 16.18 135.32 14.28 135.32 11.66C135.32 9.03 136.89 7.14 139.05 7.14C141.2 7.14 142.78 9.04 142.78 11.66ZM156.93 14.29C156.53 15.17 155.48 16.18 153.75 16.18C151.39 16.18 149.87 14.27 149.87 11.67C149.87 9.06 151.42 7.14 153.59 7.14C155.54 7.14 157.21 8.76 157.21 11.35L157.21 11.78L150.55 11.78C150.58 13.93 151.77 15.53 153.75 15.53C155.17 15.53 155.98 14.68 156.3 14.03L156.93 14.29ZM145.86 16L145.17 16L145.17 7.27L145.84 7.27L145.84 8.63L145.91 8.63C146.28 7.74 147.25 7.15 148.41 7.15C148.53 7.15 148.65 7.15 148.76 7.16L148.76 7.85C148.67 7.84 148.55 7.82 148.37 7.82C146.91 7.82 145.86 8.83 145.86 10.25L145.86 16ZM92.95 7.78C91.17 7.78 90.12 9.42 90.12 11.65C90.12 13.88 91.18 15.53 92.95 15.53C94.74 15.53 95.8 13.84 95.8 11.65C95.8 9.46 94.75 7.78 92.95 7.78ZM99.09 11.66C99.09 13.82 100.29 15.53 102.13 15.53C103.96 15.53 105.17 13.82 105.17 11.66C105.17 9.5 103.96 7.78 102.13 7.78C100.31 7.78 99.09 9.51 99.09 11.66ZM111.76 7.78C109.99 7.78 108.93 9.42 108.93 11.65C108.93 13.88 110 15.53 111.76 15.53C113.56 15.53 114.61 13.84 114.61 11.65C114.61 9.46 113.56 7.78 111.76 7.78ZM136.01 11.66C136.01 13.82 137.21 15.53 139.05 15.53C140.88 15.53 142.09 13.82 142.09 11.66C142.09 9.5 140.88 7.78 139.05 7.78C137.23 7.78 136.01 9.51 136.01 11.66ZM153.59 7.78C151.94 7.78 150.7 9.25 150.56 11.16L156.52 11.16C156.52 9.26 155.25 7.78 153.59 7.78Z" fill="#D9D9D9" fill-opacity="1.000000" fill-rule="evenodd"/>
	</g>
	<rect id="Frame" rx="0.000000" width="322.000000" height="83.000000" transform="translate(0.500000 0.500000)" stroke="#FFFFFF" stroke-opacity="0" stroke-width="1.000000"/>
</svg>
