<svg width="18.000000" height="12.599609" viewBox="0 0 18 12.5996" fill="none" xmlns="http://www.w3.org/2000/svg" xmlns:xlink="http://www.w3.org/1999/xlink">
	<desc>
			Created with Pixso.
	</desc>
	<defs/>
	<path id="Vector" d="M0.24 1.22C0 1.7 0 2.33 0 3.59L0 9C0 10.25 0 10.88 0.24 11.37C0.46 11.79 0.8 12.13 1.22 12.35C1.7 12.59 2.33 12.59 3.59 12.59L14.4 12.59C15.66 12.59 16.29 12.59 16.77 12.35C17.19 12.13 17.53 11.79 17.75 11.37C18 10.88 18 10.25 18 9L18 3.59C18 2.33 18 1.7 17.75 1.22C17.53 0.8 17.19 0.46 16.77 0.24C16.29 0 15.66 0 14.4 0L3.59 0C2.33 0 1.7 0 1.22 0.24C0.8 0.46 0.46 0.8 0.24 1.22ZM2.38 1.79L15.61 1.79C15.71 1.79 15.8 1.83 15.88 1.88C15.96 1.94 16.02 2.02 16.04 2.11C16.07 2.21 16.07 2.31 16.04 2.4C16 2.49 15.94 2.57 15.86 2.62L9.5 6.88C9.35 6.98 9.17 7.03 9 7.03C8.82 7.03 8.64 6.98 8.5 6.88L2.13 2.62C2.05 2.57 1.99 2.49 1.95 2.4C1.92 2.31 1.92 2.21 1.95 2.11C1.97 2.02 2.03 1.94 2.11 1.88C2.19 1.83 2.28 1.79 2.38 1.79Z" fill="#FFFFFF" fill-opacity="1.000000" fill-rule="evenodd"/>
</svg>
