<svg width="18.000000" height="12.599609" viewBox="0 0 18 12.5996" fill="none" xmlns="http://www.w3.org/2000/svg" xmlns:xlink="http://www.w3.org/1999/xlink">
	<desc>
			Created with Pixso.
	</desc>
	<defs/>
	<path id="Vector" d="M0.24 1.22C0 1.7 0 2.33 0 3.59L0 9C0 10.25 0 10.88 0.24 11.37C0.46 11.79 0.8 12.13 1.22 12.35C1.7 12.59 2.33 12.59 3.59 12.59L14.4 12.59C15.66 12.59 16.29 12.59 16.77 12.35C17.19 12.13 17.53 11.79 17.75 11.37C18 10.88 18 10.25 18 9L18 3.59C18 2.33 18 1.7 17.75 1.22C17.53 0.8 17.19 0.46 16.77 0.24C16.29 0 15.66 0 14.4 0L3.59 0C2.33 0 1.7 0 1.22 0.24C0.8 0.46 0.46 0.8 0.24 1.22ZM0.5 9L0.5 3.59Q0.5 2.51 0.52 2.16Q0.56 1.69 0.69 1.45Q0.82 1.2 1.01 1Q1.2 0.81 1.45 0.69Q1.69 0.56 2.16 0.52Q2.51 0.5 3.59 0.5L14.4 0.5Q15.48 0.5 15.83 0.52Q16.3 0.56 16.54 0.69Q16.79 0.81 16.98 1Q17.17 1.2 17.3 1.45Q17.43 1.69 17.47 2.16Q17.5 2.51 17.5 3.59L17.5 9Q17.5 10.08 17.47 10.43Q17.43 10.9 17.3 11.14Q17.17 11.39 16.98 11.58Q16.79 11.77 16.54 11.9Q16.3 12.03 15.83 12.07Q15.48 12.09 14.4 12.09L3.59 12.09Q2.51 12.09 2.16 12.07Q1.69 12.03 1.45 11.9Q1.2 11.77 1 11.58Q0.81 11.39 0.69 11.14Q0.56 10.9 0.52 10.43Q0.5 10.08 0.5 9ZM15.61 1.29L15.61 1.29L2.38 1.29Q2.22 1.29 2.08 1.34Q1.94 1.39 1.81 1.48Q1.69 1.58 1.6 1.7Q1.51 1.82 1.47 1.97Q1.42 2.12 1.43 2.27Q1.43 2.42 1.48 2.57Q1.54 2.71 1.63 2.83Q1.72 2.95 1.85 3.04L8.22 7.29Q8.39 7.41 8.59 7.47Q8.78 7.53 9 7.53Q9.21 7.53 9.4 7.47Q9.6 7.41 9.77 7.29L16.14 3.04Q16.27 2.95 16.36 2.83Q16.45 2.71 16.51 2.57Q16.56 2.42 16.56 2.27Q16.57 2.12 16.52 1.97Q16.48 1.82 16.39 1.7Q16.3 1.58 16.18 1.48Q16.05 1.39 15.91 1.34Q15.77 1.29 15.61 1.29ZM2.38 1.79L15.61 1.79C15.71 1.79 15.8 1.83 15.88 1.88C15.96 1.94 16.02 2.02 16.04 2.11C16.07 2.21 16.07 2.31 16.04 2.4C16 2.49 15.94 2.57 15.86 2.62L9.5 6.88C9.35 6.98 9.17 7.03 9 7.03C8.82 7.03 8.64 6.98 8.5 6.88L2.13 2.62C2.05 2.57 1.99 2.49 1.95 2.4C1.92 2.31 1.92 2.21 1.95 2.11C1.97 2.02 2.03 1.94 2.11 1.88C2.19 1.83 2.28 1.79 2.38 1.79Z" fill="#FFFFFF" fill-opacity="1.000000" fill-rule="evenodd"/>
</svg>
