<svg width="18.000000" height="18.000000" viewBox="0 0 18 18" fill="none" xmlns="http://www.w3.org/2000/svg" xmlns:xlink="http://www.w3.org/1999/xlink">
	<desc>
			Created with Pixso.
	</desc>
	<defs/>
	<path id="Vector" d="M12.55 11.54L12.1 12.02C12.1 12.02 11.01 13.16 8.06 10.05C5.1 6.94 6.19 5.8 6.19 5.8L6.47 5.5C7.18 4.75 7.25 3.56 6.63 2.69L5.37 0.9C4.61 -0.17 3.13 -0.32 2.26 0.6L0.69 2.26C0.25 2.71 -0.04 3.3 0 3.96C0.09 5.64 0.81 9.25 4.81 13.47C9.06 17.94 13.04 18.12 14.67 17.96C15.19 17.91 15.63 17.63 16 17.25L17.42 15.75C18.38 14.74 18.11 13.01 16.88 12.31L14.97 11.21C14.16 10.74 13.18 10.88 12.55 11.54ZM12.46 12.37L12.46 12.37L12.91 11.89Q13.1 11.69 13.34 11.57Q13.53 11.48 13.76 11.45Q13.96 11.42 14.16 11.45Q14.45 11.48 14.72 11.64L16.63 12.74Q16.79 12.83 16.92 12.95Q17.08 13.09 17.2 13.28Q17.28 13.41 17.35 13.55Q17.44 13.76 17.47 13.99Q17.51 14.26 17.48 14.51Q17.46 14.63 17.43 14.75Q17.37 14.97 17.25 15.15Q17.17 15.29 17.05 15.41L15.63 16.91Q15.17 17.39 14.65 17.46Q14.64 17.46 14.62 17.46Q13.89 17.53 13.09 17.46Q11.99 17.35 10.88 16.98Q9.51 16.51 8.18 15.66Q6.62 14.65 5.17 13.13Q2.59 10.41 1.4 7.57Q0.95 6.5 0.71 5.45Q0.54 4.66 0.5 3.93Q0.49 3.86 0.5 3.78Q0.51 3.5 0.63 3.23Q0.77 2.9 1.05 2.6L2.62 0.95Q2.78 0.78 2.97 0.67Q3.07 0.62 3.17 0.58Q3.3 0.54 3.42 0.51Q3.61 0.48 3.81 0.5Q3.93 0.51 4.05 0.55Q4.25 0.6 4.43 0.7Q4.51 0.75 4.58 0.8Q4.8 0.96 4.96 1.19L6.22 2.98Q6.31 3.1 6.37 3.23Q6.44 3.37 6.48 3.53Q6.53 3.69 6.54 3.85Q6.56 3.98 6.55 4.11Q6.54 4.33 6.47 4.53Q6.45 4.61 6.42 4.68Q6.35 4.85 6.24 5Q6.18 5.08 6.11 5.15L5.82 5.46L5.82 5.46Q5.68 5.6 5.59 5.86Q5.44 6.29 5.52 6.83Q5.74 8.34 7.7 10.4Q9.66 12.46 11.11 12.7Q11.64 12.78 12.06 12.62Q12.31 12.52 12.46 12.37Z" fill="#FFFFFF" fill-opacity="1.000000" fill-rule="evenodd"/>
</svg>
