<svg width="18.000000" height="18.000000" viewBox="0 0 18 18" fill="none" xmlns="http://www.w3.org/2000/svg" xmlns:xlink="http://www.w3.org/1999/xlink">
	<desc>
			Created with Pixso.
	</desc>
	<defs/>
	<path id="Vector" d="M12.55 11.54L12.1 12.02C12.1 12.02 11.01 13.16 8.06 10.05C5.1 6.94 6.19 5.8 6.19 5.8L6.47 5.5C7.18 4.75 7.25 3.56 6.63 2.69L5.37 0.9C4.61 -0.17 3.13 -0.32 2.26 0.6L0.69 2.26C0.25 2.71 -0.04 3.3 0 3.96C0.09 5.64 0.81 9.25 4.81 13.47C9.06 17.94 13.04 18.12 14.67 17.96C15.19 17.91 15.63 17.63 16 17.25L17.42 15.75C18.38 14.74 18.11 13.01 16.88 12.31L14.97 11.21C14.16 10.74 13.18 10.88 12.55 11.54Z" fill="#FFFFFF" fill-opacity="1.000000" fill-rule="nonzero"/>
</svg>
