<svg width="18.500000" height="18.500000" viewBox="0 0 18.5 18.5" fill="none" xmlns="http://www.w3.org/2000/svg" xmlns:xlink="http://www.w3.org/1999/xlink">
	<desc>
			Created with Pixso.
	</desc>
	<defs/>
	<path id="Vector" d="M5 0.25L13.49 0.25C15.38 0.24 16.99 1.61 17.3 3.47L18.25 9.25L18.25 15.67C18.25 17.09 17.09 18.25 15.67 18.25L2.82 18.25C1.4 18.25 0.25 17.09 0.25 15.67L0.25 9.25L1.19 3.47C1.5 1.61 3.11 0.24 5 0.25ZM3.73 3.89L2.82 9.25L2.82 10.53L4.61 10.53C5.37 10.53 6.12 10.76 6.75 11.18L7.82 11.89C8.68 12.47 9.81 12.47 10.67 11.89L11.74 11.18C12.37 10.76 13.12 10.53 13.88 10.53L15.67 10.53L15.67 9.25L14.76 3.89C14.66 3.27 14.12 2.82 13.5 2.82L4.99 2.82L5 2.82C4.37 2.82 3.83 3.27 3.73 3.89Z" stroke="#FFFFFF" stroke-opacity="1.000000" stroke-width="0.500000"/>
</svg>
