<svg width="18.000000" height="18.000000" viewBox="0 0 18 18" fill="none" xmlns="http://www.w3.org/2000/svg" xmlns:xlink="http://www.w3.org/1999/xlink">
	<desc>
			Created with Pixso.
	</desc>
	<defs/>
	<path id="Vector" d="M0.94 3.22C1.25 1.36 2.86 -0.01 4.75 0L13.24 0C15.13 -0.01 16.74 1.36 17.05 3.22L18 9L18 15.42C18 16.84 16.84 18 15.42 18L2.57 18C1.15 18 0 16.84 0 15.42L0 9L0.94 3.22ZM4.75 2.57C4.12 2.57 3.58 3.02 3.48 3.64L2.57 9L2.57 10.28L4.36 10.28C5.12 10.28 5.87 10.51 6.5 10.93L7.57 11.64C8.43 12.22 9.56 12.22 10.42 11.64L11.49 10.93C12.12 10.51 12.87 10.28 13.63 10.28L15.42 10.28L15.42 9L14.51 3.64C14.41 3.02 13.87 2.57 13.25 2.57L4.74 2.57L4.75 2.57Z" fill="#FFFFFF" fill-opacity="1.000000" fill-rule="nonzero"/>
</svg>
