<svg width="18.500000" height="18.500000" viewBox="0 0 18.5 18.5" fill="none" xmlns="http://www.w3.org/2000/svg" xmlns:xlink="http://www.w3.org/1999/xlink">
	<desc>
			Created with Pixso.
	</desc>
	<defs/>
	<path id="Vector" d="M15.97 7.51C15.81 6.98 15.59 6.45 15.36 5.99L16.73 4.25C16.88 4.1 16.8 3.87 16.73 3.72L15.05 2.06C14.9 1.91 14.67 1.91 14.52 2.06L12.78 3.42C12.32 3.12 11.79 2.97 11.26 2.82L11.03 0.62C10.88 0.4 10.73 0.25 10.57 0.25L8.22 0.25C7.99 0.25 7.84 0.4 7.84 0.55L7.61 2.74C7.08 2.89 6.55 3.12 6.09 3.35L4.27 2.06C4.12 1.91 3.89 1.98 3.74 2.06L2.07 3.72C1.92 3.87 1.92 4.1 2.07 4.25L3.43 5.99C3.13 6.45 2.98 6.98 2.83 7.51L0.62 7.73C0.4 7.81 0.25 7.96 0.25 8.11L0.25 10.46C0.25 10.68 0.4 10.83 0.55 10.83L2.75 11.06C2.9 11.59 3.13 12.12 3.36 12.57L1.99 14.31C1.84 14.46 1.92 14.69 1.99 14.84L3.66 16.51C3.81 16.66 4.04 16.66 4.19 16.51L5.94 15.14C6.4 15.45 6.93 15.6 7.46 15.75L7.69 17.94C7.69 18.17 7.84 18.25 8.07 18.25L10.42 18.25C10.65 18.25 10.8 18.09 10.8 17.94L11.03 15.75C11.56 15.6 12.09 15.37 12.55 15.14L14.29 16.51C14.45 16.66 14.67 16.58 14.83 16.51L16.5 14.84C16.65 14.69 16.65 14.46 16.5 14.31L15.13 12.57C15.43 12.12 15.59 11.59 15.74 11.06L17.94 10.83C18.17 10.83 18.24 10.68 18.24 10.46L18.24 8.11C18.24 8.06 18.25 8.01 18.25 7.97C18.25 7.84 18.15 7.73 18.02 7.72L15.97 7.51ZM6.32 9.32C6.32 7.66 7.69 6.29 9.36 6.29C11.03 6.29 12.4 7.66 12.4 9.32C12.4 10.98 11.03 12.35 9.36 12.35C7.69 12.35 6.32 10.98 6.32 9.32Z" stroke="#FFFFFF" stroke-opacity="1.000000" stroke-width="0.500000"/>
</svg>
