<svg width="18.000000" height="18.000000" viewBox="0 0 18 18" fill="none" xmlns="http://www.w3.org/2000/svg" xmlns:xlink="http://www.w3.org/1999/xlink">
	<desc>
			Created with Pixso.
	</desc>
	<defs/>
	<path id="Vector" d="M17.77 7.47L15.72 7.26C15.56 6.73 15.34 6.2 15.11 5.74L16.48 4C16.63 3.85 16.55 3.62 16.48 3.47L14.8 1.81C14.65 1.66 14.42 1.66 14.27 1.81L12.53 3.17C12.07 2.87 11.54 2.72 11.01 2.57L10.78 0.37C10.63 0.15 10.48 0 10.32 0L7.97 0C7.74 0 7.59 0.15 7.59 0.3L7.36 2.49C6.83 2.64 6.3 2.87 5.84 3.1L4.02 1.81C3.87 1.66 3.64 1.73 3.49 1.81L1.82 3.47C1.67 3.62 1.67 3.85 1.82 4L3.18 5.74C2.88 6.2 2.73 6.73 2.58 7.26L0.37 7.48C0.15 7.56 0 7.71 0 7.86L0 10.21C0 10.43 0.15 10.58 0.3 10.58L2.5 10.81C2.65 11.34 2.88 11.87 3.11 12.32L1.74 14.06C1.59 14.21 1.67 14.44 1.74 14.59L3.41 16.26C3.56 16.41 3.79 16.41 3.94 16.26L5.69 14.89C6.15 15.2 6.68 15.35 7.21 15.5L7.44 17.69C7.44 17.92 7.59 18 7.82 18L10.17 18C10.4 18 10.55 17.84 10.55 17.69L10.78 15.5C11.31 15.35 11.84 15.12 12.3 14.89L14.04 16.26C14.2 16.41 14.42 16.33 14.58 16.26L16.25 14.59C16.4 14.44 16.4 14.21 16.25 14.06L14.88 12.32C15.18 11.87 15.34 11.34 15.49 10.81L17.69 10.58C17.92 10.58 17.99 10.43 17.99 10.21L17.99 7.86C17.99 7.81 18 7.76 18 7.72C18 7.59 17.9 7.48 17.77 7.47ZM9.11 12.1C7.44 12.1 6.07 10.73 6.07 9.07C6.07 7.41 7.44 6.04 9.11 6.04C10.78 6.04 12.15 7.41 12.15 9.07C12.15 10.73 10.78 12.1 9.11 12.1Z" fill="#FFFFFF" fill-opacity="1.000000" fill-rule="nonzero"/>
</svg>
