<svg width="36.000000" height="36.000000" viewBox="0 0 36 36" fill="none" xmlns="http://www.w3.org/2000/svg" xmlns:xlink="http://www.w3.org/1999/xlink">
	<desc>
			Created with Pixso.
	</desc>
	<defs/>
	<path id="Vector" d="M18 36C27.94 36 36 27.94 36 18C36 8.05 27.94 0 18 0C8.05 0 0 8.05 0 18C0 27.94 8.05 36 18 36ZM24.52 33.75Q21.52 35 18 35Q14.47 35 11.47 33.75Q8.46 32.51 5.97 30.02Q3.48 27.53 2.24 24.52Q1 21.52 1 18Q1 14.47 2.24 11.47Q3.48 8.46 5.97 5.97Q8.46 3.48 11.47 2.24Q14.47 1 18 1Q21.52 1 24.52 2.24Q27.53 3.48 30.02 5.97Q32.51 8.46 33.75 11.47Q35 14.47 35 18Q35 21.52 33.75 24.52Q32.51 27.53 30.02 30.02Q27.53 32.51 24.52 33.75Z" fill="#FFFFFF" fill-opacity="1.000000" fill-rule="evenodd"/>
	<path id="Vector" d="M26.98 10.55C27.14 9.51 26.15 8.7 25.23 9.1L6.89 17.15C6.23 17.44 6.28 18.44 6.97 18.66L10.75 19.87C11.47 20.1 12.25 19.98 12.88 19.54L21.41 13.65C21.67 13.47 21.95 13.84 21.73 14.06L15.59 20.39C14.99 21.01 15.11 22.05 15.83 22.5L22.7 26.81C23.47 27.29 24.46 26.8 24.61 25.87L26.98 10.55Z" fill="#FFFFFF" fill-opacity="1.000000" fill-rule="nonzero"/>
</svg>
